<mxfile host="app.diagrams.net" agent="Mozilla/5.0 (Windows NT 10.0; Win64; x64; rv:140.0) Gecko/20100101 Firefox/140.0" version="27.1.6" pages="2">
  <diagram name="PÃ¡gina-1" id="-eWMreQbDxA8mFS1UDP3">
    <mxGraphModel dx="3204" dy="3636" grid="1" gridSize="10" guides="1" tooltips="1" connect="1" arrows="1" fold="1" page="1" pageScale="1" pageWidth="827" pageHeight="1169" math="0" shadow="0">
      <root>
        <mxCell id="0" />
        <mxCell id="1" parent="0" />
        <mxCell id="vmmLuZkF5NiIaxrYORKJ-90" value="App&lt;span style=&quot;white-space: pre;&quot;&gt;&#x9;&lt;/span&gt;" style="swimlane;fontStyle=1;align=center;verticalAlign=top;childLayout=stackLayout;horizontal=1;startSize=26;horizontalStack=0;resizeParent=1;resizeParentMax=0;resizeLast=0;collapsible=1;marginBottom=0;whiteSpace=wrap;html=1;" parent="1" vertex="1">
          <mxGeometry x="760" y="-1140" width="260" height="190" as="geometry" />
        </mxCell>
        <mxCell id="vmmLuZkF5NiIaxrYORKJ-91" value="&lt;div&gt;- samples:Sample[0..*]&lt;/div&gt;&lt;div&gt;- regions:Region[0..*]&lt;/div&gt;" style="text;strokeColor=none;fillColor=none;align=left;verticalAlign=top;spacingLeft=4;spacingRight=4;overflow=hidden;rotatable=0;points=[[0,0.5],[1,0.5]];portConstraint=eastwest;whiteSpace=wrap;html=1;" parent="vmmLuZkF5NiIaxrYORKJ-90" vertex="1">
          <mxGeometry y="26" width="260" height="44" as="geometry" />
        </mxCell>
        <mxCell id="vmmLuZkF5NiIaxrYORKJ-92" value="" style="line;strokeWidth=1;fillColor=none;align=left;verticalAlign=middle;spacingTop=-1;spacingLeft=3;spacingRight=3;rotatable=0;labelPosition=right;points=[];portConstraint=eastwest;strokeColor=inherit;" parent="vmmLuZkF5NiIaxrYORKJ-90" vertex="1">
          <mxGeometry y="70" width="260" height="8" as="geometry" />
        </mxCell>
        <mxCell id="vmmLuZkF5NiIaxrYORKJ-93" value="&lt;div&gt;+ addSample(sample:Sample):void&lt;/div&gt;&lt;div&gt;+ getSamplesTotal():Sample[0..*]&lt;/div&gt;&lt;div&gt;+ getSamplesNoRegion():Sample[0..*]&lt;/div&gt;&lt;div&gt;+ addRegion(region:Region):void&lt;/div&gt;&lt;div&gt;+ getRegions():Region[0..*]&lt;/div&gt;" style="text;strokeColor=none;fillColor=none;align=left;verticalAlign=top;spacingLeft=4;spacingRight=4;overflow=hidden;rotatable=0;points=[[0,0.5],[1,0.5]];portConstraint=eastwest;whiteSpace=wrap;html=1;" parent="vmmLuZkF5NiIaxrYORKJ-90" vertex="1">
          <mxGeometry y="78" width="260" height="112" as="geometry" />
        </mxCell>
        <mxCell id="vmmLuZkF5NiIaxrYORKJ-160" value="&lt;font style=&quot;font-size: 15px;&quot;&gt;system&lt;/font&gt;" style="html=1;verticalAlign=bottom;endArrow=block;curved=0;rounded=0;exitX=0.014;exitY=0.709;exitDx=0;exitDy=0;exitPerimeter=0;entryX=1;entryY=0.5;entryDx=0;entryDy=0;" parent="1" source="vmmLuZkF5NiIaxrYORKJ-2" target="vmmLuZkF5NiIaxrYORKJ-91" edge="1">
          <mxGeometry width="80" relative="1" as="geometry">
            <mxPoint x="374" y="-622" as="sourcePoint" />
            <mxPoint x="454" y="-622" as="targetPoint" />
          </mxGeometry>
        </mxCell>
        <mxCell id="6KkaSoD32rxEe_C6K4QG-1" value="&lt;font style=&quot;font-size: 15px;&quot;&gt;samples&lt;/font&gt;" style="html=1;verticalAlign=bottom;endArrow=block;rounded=0;exitX=0.194;exitY=1.014;exitDx=0;exitDy=0;exitPerimeter=0;entryX=0.052;entryY=0.007;entryDx=0;entryDy=0;entryPerimeter=0;" edge="1" parent="1" source="vmmLuZkF5NiIaxrYORKJ-85" target="vmmLuZkF5NiIaxrYORKJ-37">
          <mxGeometry width="80" relative="1" as="geometry">
            <mxPoint x="-180" y="-770" as="sourcePoint" />
            <mxPoint x="140" y="80" as="targetPoint" />
          </mxGeometry>
        </mxCell>
        <mxCell id="vmmLuZkF5NiIaxrYORKJ-95" value="" style="endArrow=block;endFill=1;html=1;align=left;verticalAlign=top;rounded=0;exitX=-0.002;exitY=1.108;exitDx=0;exitDy=0;entryX=1.002;entryY=0.271;entryDx=0;entryDy=0;entryPerimeter=0;exitPerimeter=0;" parent="1" source="vmmLuZkF5NiIaxrYORKJ-91" target="vmmLuZkF5NiIaxrYORKJ-85" edge="1">
          <mxGeometry x="-0.0073" y="-2" relative="1" as="geometry">
            <mxPoint x="-97" y="-720" as="sourcePoint" />
            <mxPoint x="3" y="-730" as="targetPoint" />
            <mxPoint as="offset" />
          </mxGeometry>
        </mxCell>
        <mxCell id="vmmLuZkF5NiIaxrYORKJ-98" value="&lt;font style=&quot;font-size: 15px;&quot;&gt;regions&lt;/font&gt;" style="edgeLabel;html=1;align=center;verticalAlign=middle;resizable=0;points=[];" parent="vmmLuZkF5NiIaxrYORKJ-95" vertex="1" connectable="0">
          <mxGeometry x="-0.1248" y="-3" relative="1" as="geometry">
            <mxPoint as="offset" />
          </mxGeometry>
        </mxCell>
        <mxCell id="6KkaSoD32rxEe_C6K4QG-4" value="" style="group" vertex="1" connectable="0" parent="1">
          <mxGeometry x="-790" y="-1240" width="1390" height="724" as="geometry" />
        </mxCell>
        <mxCell id="vmmLuZkF5NiIaxrYORKJ-82" value="Region" style="swimlane;fontStyle=1;align=center;verticalAlign=top;childLayout=stackLayout;horizontal=1;startSize=26;horizontalStack=0;resizeParent=1;resizeParentMax=0;resizeLast=0;collapsible=1;marginBottom=0;whiteSpace=wrap;html=1;" parent="6KkaSoD32rxEe_C6K4QG-4" vertex="1">
          <mxGeometry x="973" y="40" width="380" height="400" as="geometry" />
        </mxCell>
        <mxCell id="vmmLuZkF5NiIaxrYORKJ-83" value="- center:Position&lt;div&gt;- radius:double&lt;/div&gt;&lt;div&gt;- name:String&lt;/div&gt;&lt;div&gt;- events:EventManager&lt;/div&gt;" style="text;strokeColor=none;fillColor=none;align=left;verticalAlign=top;spacingLeft=4;spacingRight=4;overflow=hidden;rotatable=0;points=[[0,0.5],[1,0.5]];portConstraint=eastwest;whiteSpace=wrap;html=1;" parent="vmmLuZkF5NiIaxrYORKJ-82" vertex="1">
          <mxGeometry y="26" width="380" height="64" as="geometry" />
        </mxCell>
        <mxCell id="vmmLuZkF5NiIaxrYORKJ-84" value="" style="line;strokeWidth=1;fillColor=none;align=left;verticalAlign=middle;spacingTop=-1;spacingLeft=3;spacingRight=3;rotatable=0;labelPosition=right;points=[];portConstraint=eastwest;strokeColor=inherit;" parent="vmmLuZkF5NiIaxrYORKJ-82" vertex="1">
          <mxGeometry y="90" width="380" height="8" as="geometry" />
        </mxCell>
        <mxCell id="vmmLuZkF5NiIaxrYORKJ-85" value="&lt;div&gt;&lt;u style=&quot;color: rgb(0, 0, 0);&quot;&gt;+ new(Position. double, String, EventManager):void&lt;/u&gt;&lt;/div&gt;&lt;div&gt;&lt;span style=&quot;background-color: light-dark(#ffffff, var(--ge-dark-color, #121212)); color: rgb(0, 0, 0);&quot;&gt;&lt;u&gt;&lt;br&gt;&lt;/u&gt;&lt;/span&gt;&lt;/div&gt;&lt;div&gt;+ checkOverlaps(regions: Region[0..*]): Region[0..*]&lt;/div&gt;&lt;div&gt;+addSample(sample:Sample):void&amp;nbsp;&lt;div&gt;+ getSamples()Sample[0..*]&lt;/div&gt;&lt;div&gt;+ nofity(tipoEvento:String, sample:Sample):void&lt;/div&gt;&lt;div&gt;&lt;br&gt;&lt;/div&gt;&lt;div&gt;//Getters&lt;/div&gt;&lt;div&gt;+ getCenter():Positiom&lt;/div&gt;&lt;div&gt;+ getRadius():double&lt;/div&gt;&lt;div&gt;+ getName():String&lt;/div&gt;&lt;div&gt;&lt;br&gt;&lt;/div&gt;&lt;div&gt;+ isPositionInside(position:Position):boolean&lt;/div&gt;&lt;br&gt;&lt;/div&gt;&lt;div&gt;&lt;br&gt;&lt;/div&gt;&lt;div&gt;&lt;br&gt;&lt;/div&gt;&lt;div&gt;&lt;br&gt;&lt;/div&gt;&lt;div&gt;&lt;br&gt;&lt;/div&gt;&lt;div&gt;&lt;br&gt;&lt;/div&gt;" style="text;strokeColor=none;fillColor=none;align=left;verticalAlign=top;spacingLeft=4;spacingRight=4;overflow=hidden;rotatable=0;points=[[0,0.5],[1,0.5]];portConstraint=eastwest;whiteSpace=wrap;html=1;" parent="vmmLuZkF5NiIaxrYORKJ-82" vertex="1">
          <mxGeometry y="98" width="380" height="302" as="geometry" />
        </mxCell>
        <mxCell id="vmmLuZkF5NiIaxrYORKJ-133" value="EventManager" style="swimlane;fontStyle=1;align=center;verticalAlign=top;childLayout=stackLayout;horizontal=1;startSize=26;horizontalStack=0;resizeParent=1;resizeParentMax=0;resizeLast=0;collapsible=1;marginBottom=0;whiteSpace=wrap;html=1;container=0;" parent="6KkaSoD32rxEe_C6K4QG-4" vertex="1">
          <mxGeometry x="430" width="350" height="230" as="geometry" />
        </mxCell>
        <mxCell id="vmmLuZkF5NiIaxrYORKJ-146" value="uploadSubs" style="html=1;verticalAlign=bottom;endArrow=block;curved=0;rounded=0;exitX=0.129;exitY=1.013;exitDx=0;exitDy=0;exitPerimeter=0;entryX=0.094;entryY=0.003;entryDx=0;entryDy=0;entryPerimeter=0;" parent="6KkaSoD32rxEe_C6K4QG-4" source="vmmLuZkF5NiIaxrYORKJ-136" target="vmmLuZkF5NiIaxrYORKJ-137" edge="1">
          <mxGeometry width="80" relative="1" as="geometry">
            <mxPoint x="140" y="420" as="sourcePoint" />
            <mxPoint x="220" y="420" as="targetPoint" />
          </mxGeometry>
        </mxCell>
        <mxCell id="vmmLuZkF5NiIaxrYORKJ-148" value="validationSubs" style="html=1;verticalAlign=bottom;endArrow=block;curved=0;rounded=0;exitX=0.512;exitY=0.999;exitDx=0;exitDy=0;exitPerimeter=0;entryX=0.185;entryY=-0.005;entryDx=0;entryDy=0;entryPerimeter=0;" parent="6KkaSoD32rxEe_C6K4QG-4" source="vmmLuZkF5NiIaxrYORKJ-136" target="vmmLuZkF5NiIaxrYORKJ-137" edge="1">
          <mxGeometry width="80" relative="1" as="geometry">
            <mxPoint x="250" y="370" as="sourcePoint" />
            <mxPoint x="260" y="478" as="targetPoint" />
          </mxGeometry>
        </mxCell>
        <mxCell id="vmmLuZkF5NiIaxrYORKJ-127" value="" style="endArrow=block;dashed=1;endFill=0;endSize=12;html=1;rounded=0;entryX=0.005;entryY=-0.049;entryDx=0;entryDy=0;entryPerimeter=0;" parent="6KkaSoD32rxEe_C6K4QG-4" source="vmmLuZkF5NiIaxrYORKJ-122" target="vmmLuZkF5NiIaxrYORKJ-138" edge="1">
          <mxGeometry width="160" relative="1" as="geometry">
            <mxPoint x="145" y="470" as="sourcePoint" />
            <mxPoint x="300" y="506.0576923076919" as="targetPoint" />
          </mxGeometry>
        </mxCell>
        <mxCell id="vmmLuZkF5NiIaxrYORKJ-128" value="" style="html=1;verticalAlign=bottom;endArrow=block;curved=0;rounded=0;exitX=0.666;exitY=0.99;exitDx=0;exitDy=0;exitPerimeter=0;entryX=0.811;entryY=0.024;entryDx=0;entryDy=0;entryPerimeter=0;" parent="6KkaSoD32rxEe_C6K4QG-4" source="vmmLuZkF5NiIaxrYORKJ-125" target="vmmLuZkF5NiIaxrYORKJ-141" edge="1">
          <mxGeometry width="80" relative="1" as="geometry">
            <mxPoint x="10" y="434.8571428571431" as="sourcePoint" />
            <mxPoint x="-62.090000000000146" y="516.1799999999998" as="targetPoint" />
          </mxGeometry>
        </mxCell>
        <mxCell id="vmmLuZkF5NiIaxrYORKJ-129" value="validationAction" style="text;html=1;align=center;verticalAlign=middle;resizable=0;points=[];autosize=1;strokeColor=none;fillColor=none;container=0;" parent="6KkaSoD32rxEe_C6K4QG-4" vertex="1">
          <mxGeometry x="125" y="580" width="110" height="30" as="geometry" />
        </mxCell>
        <mxCell id="vmmLuZkF5NiIaxrYORKJ-130" value="" style="html=1;verticalAlign=bottom;endArrow=block;curved=0;rounded=0;exitX=0.335;exitY=1.007;exitDx=0;exitDy=0;exitPerimeter=0;entryX=0.546;entryY=0.013;entryDx=0;entryDy=0;entryPerimeter=0;" parent="6KkaSoD32rxEe_C6K4QG-4" source="vmmLuZkF5NiIaxrYORKJ-125" target="vmmLuZkF5NiIaxrYORKJ-141" edge="1">
          <mxGeometry width="80" relative="1" as="geometry">
            <mxPoint x="30" y="338.56714285714315" as="sourcePoint" />
            <mxPoint x="-60" y="463.7235092457927" as="targetPoint" />
          </mxGeometry>
        </mxCell>
        <mxCell id="vmmLuZkF5NiIaxrYORKJ-131" value="updateAction" style="text;html=1;align=center;verticalAlign=middle;resizable=0;points=[];autosize=1;strokeColor=none;fillColor=none;container=0;" parent="6KkaSoD32rxEe_C6K4QG-4" vertex="1">
          <mxGeometry x="260" y="580" width="90" height="30" as="geometry" />
        </mxCell>
        <mxCell id="vmmLuZkF5NiIaxrYORKJ-147" value="*" style="text;html=1;align=center;verticalAlign=middle;resizable=0;points=[];autosize=1;strokeColor=none;fillColor=none;container=0;" parent="6KkaSoD32rxEe_C6K4QG-4" vertex="1">
          <mxGeometry x="490" y="290" width="30" height="30" as="geometry" />
        </mxCell>
        <mxCell id="vmmLuZkF5NiIaxrYORKJ-149" value="*" style="text;html=1;align=center;verticalAlign=middle;resizable=0;points=[];autosize=1;strokeColor=none;fillColor=none;container=0;" parent="6KkaSoD32rxEe_C6K4QG-4" vertex="1">
          <mxGeometry x="580" y="280" width="30" height="30" as="geometry" />
        </mxCell>
        <mxCell id="vmmLuZkF5NiIaxrYORKJ-134" value="&lt;div&gt;- uploadSubs:IObserver[0..*]&lt;/div&gt;&lt;div&gt;- validationSubs:IObserver[0..*]&lt;/div&gt;" style="text;strokeColor=none;fillColor=none;align=left;verticalAlign=top;spacingLeft=4;spacingRight=4;overflow=hidden;rotatable=0;points=[[0,0.5],[1,0.5]];portConstraint=eastwest;whiteSpace=wrap;html=1;container=0;" parent="6KkaSoD32rxEe_C6K4QG-4" vertex="1">
          <mxGeometry x="430" y="26" width="350" height="44" as="geometry" />
        </mxCell>
        <mxCell id="vmmLuZkF5NiIaxrYORKJ-135" value="" style="line;strokeWidth=1;fillColor=none;align=left;verticalAlign=middle;spacingTop=-1;spacingLeft=3;spacingRight=3;rotatable=0;labelPosition=right;points=[];portConstraint=eastwest;strokeColor=inherit;container=0;" parent="6KkaSoD32rxEe_C6K4QG-4" vertex="1">
          <mxGeometry x="430" y="70" width="350" height="8" as="geometry" />
        </mxCell>
        <mxCell id="vmmLuZkF5NiIaxrYORKJ-136" value="&lt;div&gt;&lt;u&gt;+ new():void&lt;/u&gt;&lt;/div&gt;&lt;div&gt;&lt;u&gt;&lt;br&gt;&lt;/u&gt;&lt;/div&gt;&lt;div&gt;+ suscribeUpload(observer, String):Void&lt;/div&gt;&lt;div&gt;+ suscribeValidation(observer, String):Void&lt;/div&gt;&lt;div&gt;&lt;br&gt;&lt;/div&gt;&lt;div&gt;+ unsuscribeUpload(observer, String):void&lt;/div&gt;&lt;div&gt;+ unsuscribeValidation(observer, String):void&lt;/div&gt;&lt;div&gt;&lt;br&gt;&lt;/div&gt;&lt;div&gt;+ notify(event:String, sample:Sample, region:Region):void&lt;/div&gt;" style="text;strokeColor=none;fillColor=none;align=left;verticalAlign=top;spacingLeft=4;spacingRight=4;overflow=hidden;rotatable=0;points=[[0,0.5],[1,0.5]];portConstraint=eastwest;whiteSpace=wrap;html=1;container=0;" parent="6KkaSoD32rxEe_C6K4QG-4" vertex="1">
          <mxGeometry x="430" y="78" width="350" height="152" as="geometry" />
        </mxCell>
        <mxCell id="vmmLuZkF5NiIaxrYORKJ-77" value="&lt;div&gt;&amp;lt;&amp;lt;enum&amp;gt;&amp;gt;&lt;/div&gt;&lt;div&gt;TipoDeOrganizacion&lt;/div&gt;" style="swimlane;fontStyle=0;childLayout=stackLayout;horizontal=1;startSize=30;fillColor=none;horizontalStack=0;resizeParent=1;resizeParentMax=0;resizeLast=0;collapsible=1;marginBottom=0;whiteSpace=wrap;html=1;" parent="6KkaSoD32rxEe_C6K4QG-4" vertex="1">
          <mxGeometry x="20" y="120" width="140" height="100" as="geometry" />
        </mxCell>
        <mxCell id="vmmLuZkF5NiIaxrYORKJ-78" value="&lt;div&gt;Salud&lt;/div&gt;&lt;div&gt;Educativa&lt;/div&gt;&lt;div&gt;Cultural&lt;/div&gt;&lt;div&gt;Asistencia&lt;/div&gt;" style="text;strokeColor=none;fillColor=none;align=left;verticalAlign=top;spacingLeft=4;spacingRight=4;overflow=hidden;rotatable=0;points=[[0,0.5],[1,0.5]];portConstraint=eastwest;whiteSpace=wrap;html=1;" parent="vmmLuZkF5NiIaxrYORKJ-77" vertex="1">
          <mxGeometry y="30" width="140" height="70" as="geometry" />
        </mxCell>
        <mxCell id="vmmLuZkF5NiIaxrYORKJ-157" value="tipoONG" style="html=1;verticalAlign=bottom;endArrow=block;curved=0;rounded=0;exitX=0.402;exitY=0.006;exitDx=0;exitDy=0;exitPerimeter=0;entryX=0.63;entryY=0.977;entryDx=0;entryDy=0;entryPerimeter=0;" parent="6KkaSoD32rxEe_C6K4QG-4" source="vmmLuZkF5NiIaxrYORKJ-122" target="vmmLuZkF5NiIaxrYORKJ-78" edge="1">
          <mxGeometry width="80" relative="1" as="geometry">
            <mxPoint x="320" y="310" as="sourcePoint" />
            <mxPoint x="400" y="310" as="targetPoint" />
          </mxGeometry>
        </mxCell>
        <mxCell id="vmmLuZkF5NiIaxrYORKJ-161" value="" style="group" parent="6KkaSoD32rxEe_C6K4QG-4" vertex="1" connectable="0">
          <mxGeometry x="490" y="320" width="450" height="70" as="geometry" />
        </mxCell>
        <mxCell id="vmmLuZkF5NiIaxrYORKJ-137" value="&lt;div&gt;&amp;lt;&amp;lt;interface&amp;gt;&amp;gt;&lt;/div&gt;&lt;div&gt;IObserver&lt;/div&gt;" style="swimlane;fontStyle=0;childLayout=stackLayout;horizontal=1;startSize=26;fillColor=none;horizontalStack=0;resizeParent=1;resizeParentMax=0;resizeLast=0;collapsible=1;marginBottom=0;whiteSpace=wrap;html=1;container=0;" parent="vmmLuZkF5NiIaxrYORKJ-161" vertex="1">
          <mxGeometry width="450" height="70" as="geometry" />
        </mxCell>
        <mxCell id="vmmLuZkF5NiIaxrYORKJ-138" value="&lt;div&gt;+ notifyValidation(sample:Sample, region:Region):void&lt;/div&gt;&lt;div&gt;+&amp;nbsp;notifyUpload(sample:Sample, region:Region):void&lt;/div&gt;" style="text;strokeColor=none;fillColor=none;align=left;verticalAlign=top;spacingLeft=4;spacingRight=4;overflow=hidden;rotatable=0;points=[[0,0.5],[1,0.5]];portConstraint=eastwest;whiteSpace=wrap;html=1;container=0;" parent="vmmLuZkF5NiIaxrYORKJ-161" vertex="1">
          <mxGeometry y="26" width="450" height="44" as="geometry" />
        </mxCell>
        <mxCell id="vmmLuZkF5NiIaxrYORKJ-162" value="" style="group" parent="6KkaSoD32rxEe_C6K4QG-4" vertex="1" connectable="0">
          <mxGeometry x="50" y="290" width="360" height="250" as="geometry" />
        </mxCell>
        <mxCell id="vmmLuZkF5NiIaxrYORKJ-122" value="Organizacion" style="swimlane;fontStyle=1;align=center;verticalAlign=top;childLayout=stackLayout;horizontal=1;startSize=26;horizontalStack=0;resizeParent=1;resizeParentMax=0;resizeLast=0;collapsible=1;marginBottom=0;whiteSpace=wrap;html=1;container=0;" parent="vmmLuZkF5NiIaxrYORKJ-162" vertex="1">
          <mxGeometry width="360" height="250" as="geometry">
            <mxRectangle x="1315" y="890" width="70" height="30" as="alternateBounds" />
          </mxGeometry>
        </mxCell>
        <mxCell id="vmmLuZkF5NiIaxrYORKJ-123" value="&lt;div&gt;+ name:String&lt;/div&gt;&lt;div&gt;+ tipoONG:TipoDeOrganizacion&lt;/div&gt;&lt;div&gt;+ amountEmployees:int&lt;/div&gt;&lt;div&gt;+ validationAction: FuncionalidadExterna&lt;/div&gt;&lt;div&gt;+ updateAction: FuncionalidadExterna&lt;/div&gt;" style="text;strokeColor=none;fillColor=none;align=left;verticalAlign=top;spacingLeft=4;spacingRight=4;overflow=hidden;rotatable=0;points=[[0,0.5],[1,0.5]];portConstraint=eastwest;whiteSpace=wrap;html=1;container=0;" parent="vmmLuZkF5NiIaxrYORKJ-162" vertex="1">
          <mxGeometry y="26" width="360" height="94" as="geometry" />
        </mxCell>
        <mxCell id="vmmLuZkF5NiIaxrYORKJ-124" value="" style="line;strokeWidth=1;fillColor=none;align=left;verticalAlign=middle;spacingTop=-1;spacingLeft=3;spacingRight=3;rotatable=0;labelPosition=right;points=[];portConstraint=eastwest;strokeColor=inherit;container=0;" parent="vmmLuZkF5NiIaxrYORKJ-162" vertex="1">
          <mxGeometry y="120" width="360" height="8" as="geometry" />
        </mxCell>
        <mxCell id="vmmLuZkF5NiIaxrYORKJ-125" value="&lt;div&gt;&lt;u&gt;+ new(String, TipoDeOrganizacion, int):void&lt;/u&gt;&lt;/div&gt;&lt;div&gt;&lt;br&gt;&lt;/div&gt;&lt;div&gt;+ notifyValidation(sample:Sample, region:Region):void&lt;/div&gt;&lt;div&gt;+ notifyUpdate(sample:Sample, region:Region):void&lt;/div&gt;&lt;div&gt;&lt;br&gt;&lt;/div&gt;&lt;div&gt;+ setValidationAction(extFunc:FuncionalidadExterna):void&lt;/div&gt;&lt;div&gt;+ setUpdateAction(extFunc:FuncionalidadExterna):void&lt;/div&gt;" style="text;strokeColor=none;fillColor=none;align=left;verticalAlign=top;spacingLeft=4;spacingRight=4;overflow=hidden;rotatable=0;points=[[0,0.5],[1,0.5]];portConstraint=eastwest;whiteSpace=wrap;html=1;container=0;" parent="vmmLuZkF5NiIaxrYORKJ-162" vertex="1">
          <mxGeometry y="128" width="360" height="122" as="geometry" />
        </mxCell>
        <mxCell id="ieHR7ZOc31qo_cYA6DRX-2" value="" style="endArrow=none;html=1;rounded=0;exitX=-0.004;exitY=1.028;exitDx=0;exitDy=0;exitPerimeter=0;entryX=0.999;entryY=0.275;entryDx=0;entryDy=0;entryPerimeter=0;" parent="vmmLuZkF5NiIaxrYORKJ-162" source="vmmLuZkF5NiIaxrYORKJ-123" target="vmmLuZkF5NiIaxrYORKJ-124" edge="1">
          <mxGeometry width="50" height="50" relative="1" as="geometry">
            <mxPoint x="93" y="20" as="sourcePoint" />
            <mxPoint x="143" y="-30" as="targetPoint" />
          </mxGeometry>
        </mxCell>
        <mxCell id="vmmLuZkF5NiIaxrYORKJ-163" value="" style="group" parent="6KkaSoD32rxEe_C6K4QG-4" vertex="1" connectable="0">
          <mxGeometry y="660" width="360" height="64" as="geometry" />
        </mxCell>
        <mxCell id="vmmLuZkF5NiIaxrYORKJ-141" value="&lt;div&gt;&amp;lt;&amp;lt;interface&amp;gt;&amp;gt;&lt;/div&gt;&lt;div&gt;FuncionalidadExterna&lt;/div&gt;" style="swimlane;fontStyle=0;childLayout=stackLayout;horizontal=1;startSize=30;fillColor=none;horizontalStack=0;resizeParent=1;resizeParentMax=0;resizeLast=0;collapsible=1;marginBottom=0;whiteSpace=wrap;html=1;container=0;" parent="vmmLuZkF5NiIaxrYORKJ-163" vertex="1">
          <mxGeometry width="360" height="64" as="geometry" />
        </mxCell>
        <mxCell id="vmmLuZkF5NiIaxrYORKJ-142" value="&lt;p style=&quot;margin:0px;margin-left:4px;&quot;&gt;+ nuevoEvento(Organizacion, zonaDeCobertura, Muestra):void&lt;/p&gt;" style="text;strokeColor=none;fillColor=none;align=left;verticalAlign=top;spacingLeft=4;spacingRight=4;overflow=hidden;rotatable=0;points=[[0,0.5],[1,0.5]];portConstraint=eastwest;whiteSpace=wrap;html=1;container=0;" parent="vmmLuZkF5NiIaxrYORKJ-163" vertex="1">
          <mxGeometry y="30" width="360" height="34" as="geometry" />
        </mxCell>
        <mxCell id="ieHR7ZOc31qo_cYA6DRX-4" value="" style="endArrow=none;html=1;rounded=0;exitX=-0.001;exitY=1.01;exitDx=0;exitDy=0;exitPerimeter=0;" parent="6KkaSoD32rxEe_C6K4QG-4" source="vmmLuZkF5NiIaxrYORKJ-134" edge="1">
          <mxGeometry width="50" height="50" relative="1" as="geometry">
            <mxPoint x="763" y="230" as="sourcePoint" />
            <mxPoint x="783" y="70" as="targetPoint" />
          </mxGeometry>
        </mxCell>
        <mxCell id="vmmLuZkF5NiIaxrYORKJ-154" value="events" style="html=1;verticalAlign=bottom;endArrow=block;curved=0;rounded=0;entryX=0.996;entryY=0.581;entryDx=0;entryDy=0;entryPerimeter=0;exitX=0.003;exitY=0.297;exitDx=0;exitDy=0;exitPerimeter=0;" parent="6KkaSoD32rxEe_C6K4QG-4" source="vmmLuZkF5NiIaxrYORKJ-85" target="vmmLuZkF5NiIaxrYORKJ-136" edge="1">
          <mxGeometry width="80" relative="1" as="geometry">
            <mxPoint x="963" y="250" as="sourcePoint" />
            <mxPoint x="1043" y="250" as="targetPoint" />
          </mxGeometry>
        </mxCell>
        <mxCell id="vmmLuZkF5NiIaxrYORKJ-101" value="" style="group;strokeWidth=1;perimeterSpacing=0;" parent="6KkaSoD32rxEe_C6K4QG-4" vertex="1" connectable="0">
          <mxGeometry x="1360" y="185" width="30" height="35" as="geometry" />
        </mxCell>
        <mxCell id="vmmLuZkF5NiIaxrYORKJ-97" value="&lt;font style=&quot;font-size: 20px;&quot;&gt;*&lt;/font&gt;" style="text;html=1;align=center;verticalAlign=middle;resizable=0;points=[];autosize=1;strokeColor=none;fillColor=none;" parent="vmmLuZkF5NiIaxrYORKJ-101" vertex="1">
          <mxGeometry y="-5" width="30" height="40" as="geometry" />
        </mxCell>
        <mxCell id="vmmLuZkF5NiIaxrYORKJ-1" value="User" style="swimlane;fontStyle=1;align=center;verticalAlign=top;childLayout=stackLayout;horizontal=1;startSize=30;horizontalStack=0;resizeParent=1;resizeParentMax=0;resizeLast=0;collapsible=1;marginBottom=0;whiteSpace=wrap;html=1;" parent="1" vertex="1">
          <mxGeometry x="1110" y="-1180" width="350" height="360" as="geometry" />
        </mxCell>
        <mxCell id="vmmLuZkF5NiIaxrYORKJ-2" value="&lt;div&gt;# name: String&lt;/div&gt;&lt;div&gt;# state: IUserState&lt;/div&gt;&lt;div&gt;# system: App&lt;/div&gt;" style="text;strokeColor=none;fillColor=none;align=left;verticalAlign=top;spacingLeft=4;spacingRight=4;overflow=hidden;rotatable=0;points=[[0,0.5],[1,0.5]];portConstraint=eastwest;whiteSpace=wrap;html=1;" parent="vmmLuZkF5NiIaxrYORKJ-1" vertex="1">
          <mxGeometry y="30" width="350" height="60" as="geometry" />
        </mxCell>
        <mxCell id="vmmLuZkF5NiIaxrYORKJ-3" value="" style="line;strokeWidth=1;fillColor=none;align=left;verticalAlign=middle;spacingTop=-1;spacingLeft=3;spacingRight=3;rotatable=0;labelPosition=right;points=[];portConstraint=eastwest;strokeColor=inherit;" parent="vmmLuZkF5NiIaxrYORKJ-1" vertex="1">
          <mxGeometry y="90" width="350" height="8" as="geometry" />
        </mxCell>
        <mxCell id="vmmLuZkF5NiIaxrYORKJ-4" value="&lt;div&gt;&lt;u&gt;+ new(String, App):void&lt;/u&gt;&lt;/div&gt;&lt;div&gt;&lt;u&gt;&lt;br&gt;&lt;/u&gt;&lt;/div&gt;&lt;div&gt;+ uploadSample(specie:Evinchuca, location:Position):void&lt;/div&gt;&lt;div&gt;+ addReview(sample:Sample, opinion:OpinionValue):void&lt;/div&gt;&lt;div&gt;&lt;br&gt;&lt;/div&gt;&lt;div&gt;//Getters&lt;/div&gt;&lt;div&gt;+ getApp():App&lt;/div&gt;&lt;div&gt;+ getName():String&lt;/div&gt;&lt;div&gt;+ getExpertise(): EUserState&lt;/div&gt;&lt;div&gt;+ getSamples(): Sample[0..*]&lt;/div&gt;&lt;div&gt;+ getSampleDates(): LocalDate[0..*]&lt;/div&gt;&lt;div&gt;+ getReviewDates(): LocalDate[0..*]&lt;/div&gt;&lt;div&gt;&lt;br&gt;&lt;/div&gt;&lt;div&gt;//Setters&lt;/div&gt;&lt;div&gt;+ changeState(state: EUserState): void&lt;/div&gt;" style="text;strokeColor=none;fillColor=none;align=left;verticalAlign=top;spacingLeft=4;spacingRight=4;overflow=hidden;rotatable=0;points=[[0,0.5],[1,0.5]];portConstraint=eastwest;whiteSpace=wrap;html=1;" parent="vmmLuZkF5NiIaxrYORKJ-1" vertex="1">
          <mxGeometry y="98" width="350" height="262" as="geometry" />
        </mxCell>
        <mxCell id="vmmLuZkF5NiIaxrYORKJ-10" value="Extends" style="endArrow=block;endSize=16;endFill=0;html=1;rounded=0;entryX=1;entryY=0.5;entryDx=0;entryDy=0;exitX=0.003;exitY=0.183;exitDx=0;exitDy=0;exitPerimeter=0;" parent="1" source="vmmLuZkF5NiIaxrYORKJ-8" target="vmmLuZkF5NiIaxrYORKJ-2" edge="1">
          <mxGeometry width="160" relative="1" as="geometry">
            <mxPoint x="1190" y="-460" as="sourcePoint" />
            <mxPoint x="1350" y="-460" as="targetPoint" />
          </mxGeometry>
        </mxCell>
        <mxCell id="vmmLuZkF5NiIaxrYORKJ-22" value="" style="html=1;verticalAlign=bottom;endArrow=block;curved=0;rounded=0;" parent="1" source="vmmLuZkF5NiIaxrYORKJ-4" target="vmmLuZkF5NiIaxrYORKJ-16" edge="1">
          <mxGeometry width="80" relative="1" as="geometry">
            <mxPoint x="2150" y="-70" as="sourcePoint" />
            <mxPoint x="2230" y="-70" as="targetPoint" />
          </mxGeometry>
        </mxCell>
        <mxCell id="vmmLuZkF5NiIaxrYORKJ-54" value="&lt;font style=&quot;font-size: 15px;&quot;&gt;state&lt;/font&gt;" style="edgeLabel;html=1;align=center;verticalAlign=middle;resizable=0;points=[];" parent="vmmLuZkF5NiIaxrYORKJ-22" vertex="1" connectable="0">
          <mxGeometry x="-0.1018" y="1" relative="1" as="geometry">
            <mxPoint as="offset" />
          </mxGeometry>
        </mxCell>
        <mxCell id="vmmLuZkF5NiIaxrYORKJ-70" value="" style="group" parent="1" vertex="1" connectable="0">
          <mxGeometry x="960" y="-1160" width="1340" height="1650" as="geometry" />
        </mxCell>
        <mxCell id="vmmLuZkF5NiIaxrYORKJ-5" value="PermanentE" style="swimlane;fontStyle=1;align=center;verticalAlign=top;childLayout=stackLayout;horizontal=1;startSize=26;horizontalStack=0;resizeParent=1;resizeParentMax=0;resizeLast=0;collapsible=1;marginBottom=0;whiteSpace=wrap;html=1;" parent="vmmLuZkF5NiIaxrYORKJ-70" vertex="1">
          <mxGeometry x="630" width="210" height="94" as="geometry" />
        </mxCell>
        <mxCell id="vmmLuZkF5NiIaxrYORKJ-7" value="" style="line;strokeWidth=1;fillColor=none;align=left;verticalAlign=middle;spacingTop=-1;spacingLeft=3;spacingRight=3;rotatable=0;labelPosition=right;points=[];portConstraint=eastwest;strokeColor=inherit;" parent="vmmLuZkF5NiIaxrYORKJ-5" vertex="1">
          <mxGeometry y="26" width="210" height="8" as="geometry" />
        </mxCell>
        <mxCell id="vmmLuZkF5NiIaxrYORKJ-8" value="&lt;div&gt;&lt;u&gt;+ new(String, App):void&lt;br&gt;&lt;/u&gt;&lt;/div&gt;&lt;div&gt;&lt;br&gt;&lt;/div&gt;" style="text;strokeColor=none;fillColor=none;align=left;verticalAlign=top;spacingLeft=4;spacingRight=4;overflow=hidden;rotatable=0;points=[[0,0.5],[1,0.5]];portConstraint=eastwest;whiteSpace=wrap;html=1;" parent="vmmLuZkF5NiIaxrYORKJ-5" vertex="1">
          <mxGeometry y="34" width="210" height="60" as="geometry" />
        </mxCell>
        <mxCell id="vmmLuZkF5NiIaxrYORKJ-16" value="&lt;div&gt;&amp;lt;&amp;lt;interface&amp;gt;&amp;gt;&lt;/div&gt;&lt;div&gt;IUserState&lt;/div&gt;" style="swimlane;fontStyle=0;childLayout=stackLayout;horizontal=1;startSize=26;fillColor=none;horizontalStack=0;resizeParent=1;resizeParentMax=0;resizeLast=0;collapsible=1;marginBottom=0;whiteSpace=wrap;html=1;" parent="vmmLuZkF5NiIaxrYORKJ-70" vertex="1">
          <mxGeometry x="780" y="230" width="490" height="70" as="geometry" />
        </mxCell>
        <mxCell id="vmmLuZkF5NiIaxrYORKJ-17" value="&lt;div&gt;&lt;i&gt;+ getExpertise():String&lt;/i&gt;&lt;/div&gt;&lt;div&gt;&lt;i&gt;+ statCheck(user:ChangeableUser, samples:LocalDate[0..*], reviews:LocalDate[0..*]):void&lt;/i&gt;&lt;/div&gt;" style="text;strokeColor=none;fillColor=none;align=left;verticalAlign=top;spacingLeft=4;spacingRight=4;overflow=hidden;rotatable=0;points=[[0,0.5],[1,0.5]];portConstraint=eastwest;whiteSpace=wrap;html=1;" parent="vmmLuZkF5NiIaxrYORKJ-16" vertex="1">
          <mxGeometry y="26" width="490" height="44" as="geometry" />
        </mxCell>
        <mxCell id="vmmLuZkF5NiIaxrYORKJ-23" value="Basic" style="swimlane;fontStyle=1;align=center;verticalAlign=top;childLayout=stackLayout;horizontal=1;startSize=26;horizontalStack=0;resizeParent=1;resizeParentMax=0;resizeLast=0;collapsible=1;marginBottom=0;whiteSpace=wrap;html=1;" parent="vmmLuZkF5NiIaxrYORKJ-70" vertex="1">
          <mxGeometry x="460" y="370" width="500" height="90" as="geometry" />
        </mxCell>
        <mxCell id="vmmLuZkF5NiIaxrYORKJ-25" value="" style="line;strokeWidth=1;fillColor=none;align=left;verticalAlign=middle;spacingTop=-1;spacingLeft=3;spacingRight=3;rotatable=0;labelPosition=right;points=[];portConstraint=eastwest;strokeColor=inherit;" parent="vmmLuZkF5NiIaxrYORKJ-23" vertex="1">
          <mxGeometry y="26" width="500" height="8" as="geometry" />
        </mxCell>
        <mxCell id="vmmLuZkF5NiIaxrYORKJ-26" value="&lt;div&gt;&lt;i&gt;+ getExpertise():String&lt;/i&gt;&lt;/div&gt;&lt;div&gt;&lt;i&gt;+ statCheck(user:ChangeableUser, samples:LocalDate[0..*], reviews:LocalDate[0..*]):void&lt;/i&gt;&lt;/div&gt;" style="text;strokeColor=none;fillColor=none;align=left;verticalAlign=top;spacingLeft=4;spacingRight=4;overflow=hidden;rotatable=0;points=[[0,0.5],[1,0.5]];portConstraint=eastwest;whiteSpace=wrap;html=1;" parent="vmmLuZkF5NiIaxrYORKJ-23" vertex="1">
          <mxGeometry y="34" width="500" height="56" as="geometry" />
        </mxCell>
        <mxCell id="vmmLuZkF5NiIaxrYORKJ-27" value="Expert" style="swimlane;fontStyle=1;align=center;verticalAlign=top;childLayout=stackLayout;horizontal=1;startSize=26;horizontalStack=0;resizeParent=1;resizeParentMax=0;resizeLast=0;collapsible=1;marginBottom=0;whiteSpace=wrap;html=1;" parent="vmmLuZkF5NiIaxrYORKJ-70" vertex="1">
          <mxGeometry x="980" y="370" width="500" height="90" as="geometry" />
        </mxCell>
        <mxCell id="vmmLuZkF5NiIaxrYORKJ-28" value="" style="line;strokeWidth=1;fillColor=none;align=left;verticalAlign=middle;spacingTop=-1;spacingLeft=3;spacingRight=3;rotatable=0;labelPosition=right;points=[];portConstraint=eastwest;strokeColor=inherit;" parent="vmmLuZkF5NiIaxrYORKJ-27" vertex="1">
          <mxGeometry y="26" width="500" height="8" as="geometry" />
        </mxCell>
        <mxCell id="vmmLuZkF5NiIaxrYORKJ-29" value="&lt;div&gt;&lt;i&gt;+ getExpertise():String&lt;/i&gt;&lt;/div&gt;&lt;div&gt;&lt;i&gt;+ statCheck(user:ChangeableUser, samples:LocalDate[0..*], reviews:LocalDate[0..*]):void&lt;/i&gt;&lt;/div&gt;" style="text;strokeColor=none;fillColor=none;align=left;verticalAlign=top;spacingLeft=4;spacingRight=4;overflow=hidden;rotatable=0;points=[[0,0.5],[1,0.5]];portConstraint=eastwest;whiteSpace=wrap;html=1;" parent="vmmLuZkF5NiIaxrYORKJ-27" vertex="1">
          <mxGeometry y="34" width="500" height="56" as="geometry" />
        </mxCell>
        <mxCell id="vmmLuZkF5NiIaxrYORKJ-31" value="" style="endArrow=block;dashed=1;endFill=0;endSize=12;html=1;rounded=0;entryX=0.665;entryY=1.083;entryDx=0;entryDy=0;entryPerimeter=0;exitX=0.436;exitY=-0.011;exitDx=0;exitDy=0;exitPerimeter=0;" parent="vmmLuZkF5NiIaxrYORKJ-70" source="vmmLuZkF5NiIaxrYORKJ-27" target="vmmLuZkF5NiIaxrYORKJ-17" edge="1">
          <mxGeometry width="160" relative="1" as="geometry">
            <mxPoint x="1230" y="440" as="sourcePoint" />
            <mxPoint x="1390" y="440" as="targetPoint" />
          </mxGeometry>
        </mxCell>
        <mxCell id="vmmLuZkF5NiIaxrYORKJ-32" value="" style="endArrow=block;dashed=1;endFill=0;endSize=12;html=1;rounded=0;entryX=0.469;entryY=0.987;entryDx=0;entryDy=0;entryPerimeter=0;exitX=0.641;exitY=0;exitDx=0;exitDy=0;exitPerimeter=0;" parent="vmmLuZkF5NiIaxrYORKJ-70" source="vmmLuZkF5NiIaxrYORKJ-23" target="vmmLuZkF5NiIaxrYORKJ-17" edge="1">
          <mxGeometry width="160" relative="1" as="geometry">
            <mxPoint x="860.7438525366574" y="360" as="sourcePoint" />
            <mxPoint x="1010" y="324" as="targetPoint" />
          </mxGeometry>
        </mxCell>
        <mxCell id="6KkaSoD32rxEe_C6K4QG-15" value="PermanentExpert" style="swimlane;fontStyle=1;align=center;verticalAlign=top;childLayout=stackLayout;horizontal=1;startSize=26;horizontalStack=0;resizeParent=1;resizeParentMax=0;resizeLast=0;collapsible=1;marginBottom=0;whiteSpace=wrap;html=1;" vertex="1" parent="vmmLuZkF5NiIaxrYORKJ-70">
          <mxGeometry x="990" y="530" width="500" height="90" as="geometry" />
        </mxCell>
        <mxCell id="6KkaSoD32rxEe_C6K4QG-16" value="" style="line;strokeWidth=1;fillColor=none;align=left;verticalAlign=middle;spacingTop=-1;spacingLeft=3;spacingRight=3;rotatable=0;labelPosition=right;points=[];portConstraint=eastwest;strokeColor=inherit;" vertex="1" parent="6KkaSoD32rxEe_C6K4QG-15">
          <mxGeometry y="26" width="500" height="8" as="geometry" />
        </mxCell>
        <mxCell id="6KkaSoD32rxEe_C6K4QG-17" value="&lt;div&gt;&lt;i&gt;+ getExpertise():String&lt;/i&gt;&lt;/div&gt;&lt;div&gt;&lt;i&gt;+ statCheck(user:ChangeableUser, samples:LocalDate[0..*], reviews:LocalDate[0..*]):void&lt;/i&gt;&lt;/div&gt;" style="text;strokeColor=none;fillColor=none;align=left;verticalAlign=top;spacingLeft=4;spacingRight=4;overflow=hidden;rotatable=0;points=[[0,0.5],[1,0.5]];portConstraint=eastwest;whiteSpace=wrap;html=1;" vertex="1" parent="6KkaSoD32rxEe_C6K4QG-15">
          <mxGeometry y="34" width="500" height="56" as="geometry" />
        </mxCell>
        <mxCell id="6KkaSoD32rxEe_C6K4QG-18" value="Extends" style="endArrow=block;endSize=16;endFill=0;html=1;rounded=0;entryX=0.52;entryY=1;entryDx=0;entryDy=0;exitX=0.564;exitY=0;exitDx=0;exitDy=0;exitPerimeter=0;entryPerimeter=0;" edge="1" parent="vmmLuZkF5NiIaxrYORKJ-70" source="6KkaSoD32rxEe_C6K4QG-15" target="vmmLuZkF5NiIaxrYORKJ-29">
          <mxGeometry width="160" relative="1" as="geometry">
            <mxPoint x="1351" y="480" as="sourcePoint" />
            <mxPoint x="1190" y="495" as="targetPoint" />
          </mxGeometry>
        </mxCell>
        <mxCell id="6KkaSoD32rxEe_C6K4QG-3" value="" style="group" vertex="1" connectable="0" parent="vmmLuZkF5NiIaxrYORKJ-70">
          <mxGeometry x="-1230" y="510" width="2023" height="1140" as="geometry" />
        </mxCell>
        <mxCell id="vmmLuZkF5NiIaxrYORKJ-71" value="" style="group" parent="6KkaSoD32rxEe_C6K4QG-3" vertex="1" connectable="0">
          <mxGeometry x="690" y="120" width="1333" height="1020" as="geometry" />
        </mxCell>
        <mxCell id="vmmLuZkF5NiIaxrYORKJ-37" value="Sample" style="swimlane;fontStyle=1;align=center;verticalAlign=top;childLayout=stackLayout;horizontal=1;startSize=26;horizontalStack=0;resizeParent=1;resizeParentMax=0;resizeLast=0;collapsible=1;marginBottom=0;whiteSpace=wrap;html=1;" parent="vmmLuZkF5NiIaxrYORKJ-71" vertex="1">
          <mxGeometry width="520" height="550" as="geometry" />
        </mxCell>
        <mxCell id="vmmLuZkF5NiIaxrYORKJ-38" value="&lt;div&gt;+ user: User&lt;/div&gt;&lt;div&gt;+ photo: String&lt;/div&gt;&lt;div&gt;+ specie: EVinchuca&lt;/div&gt;&lt;div&gt;+ location: Position&lt;/div&gt;&lt;div&gt;+ state: ISampleState&lt;/div&gt;&lt;div&gt;+ fechaCreacion: LocalDate&lt;/div&gt;&lt;div&gt;+ system: App&lt;/div&gt;&lt;div&gt;&lt;br&gt;&lt;/div&gt;&lt;div&gt;+ reviews: Review[0..*]&lt;/div&gt;" style="text;strokeColor=none;fillColor=none;align=left;verticalAlign=top;spacingLeft=4;spacingRight=4;overflow=hidden;rotatable=0;points=[[0,0.5],[1,0.5]];portConstraint=eastwest;whiteSpace=wrap;html=1;" parent="vmmLuZkF5NiIaxrYORKJ-37" vertex="1">
          <mxGeometry y="26" width="520" height="164" as="geometry" />
        </mxCell>
        <mxCell id="vmmLuZkF5NiIaxrYORKJ-39" value="" style="line;strokeWidth=1;fillColor=none;align=left;verticalAlign=middle;spacingTop=-1;spacingLeft=3;spacingRight=3;rotatable=0;labelPosition=right;points=[];portConstraint=eastwest;strokeColor=inherit;" parent="vmmLuZkF5NiIaxrYORKJ-37" vertex="1">
          <mxGeometry y="190" width="520" height="8" as="geometry" />
        </mxCell>
        <mxCell id="vmmLuZkF5NiIaxrYORKJ-40" value="&lt;div&gt;&lt;div&gt;&lt;u&gt;+new(User, EVinchuca, Position, App):void&lt;/u&gt;&lt;/div&gt;&lt;div&gt;&lt;br&gt;&lt;/div&gt;&lt;div&gt;+addReview(opinion: OpinionValue, user: User): void&lt;div&gt;+currentResult(): OpinionValue&lt;/div&gt;&lt;div&gt;# result(expertise: EUserState): void&lt;/div&gt;&lt;div&gt;&lt;br&gt;&lt;/div&gt;&lt;/div&gt;&lt;div&gt;+ puedeOpininar(user:User): boolean&lt;/div&gt;&lt;div&gt;+ listLevel(expertise: EUserState):Review[0..*]&lt;/div&gt;&lt;div&gt;+ expertsCoinciden(opinion:OpinionValue):boolean&lt;/div&gt;&lt;div&gt;+ notifyValidation(): void&lt;/div&gt;&lt;/div&gt;&lt;div&gt;&lt;br&gt;&lt;/div&gt;&lt;div&gt;+ ultimaVotacion(): LocalDate&lt;/div&gt;&lt;div&gt;+ nivelDeVerificacion(): String&lt;/div&gt;&lt;div&gt;+ ultimaReview: Review&lt;/div&gt;&lt;div&gt;&lt;br&gt;&lt;/div&gt;&lt;div&gt;//Getters&lt;/div&gt;&lt;div&gt;+ getSpecie(): EVinchuca&lt;/div&gt;&lt;div&gt;+ getLocation(): Position&lt;/div&gt;&lt;div&gt;+ getPhoto(): String&lt;/div&gt;&lt;div&gt;+ getUser(): User&lt;/div&gt;&lt;div&gt;+ getReviews():Review[0..*]&lt;/div&gt;&lt;div&gt;+ getApp():App&lt;/div&gt;&lt;div&gt;+ getState():ISampleState&lt;/div&gt;&lt;div&gt;&lt;br&gt;&lt;/div&gt;&lt;div&gt;//Setters&lt;/div&gt;&lt;div&gt;+ setState(state:ISampleState):void&lt;/div&gt;&lt;div&gt;+ setApp(system:App):void&lt;/div&gt;&lt;div&gt;&lt;br&gt;&lt;/div&gt;&lt;div&gt;&lt;br&gt;&lt;/div&gt;" style="text;strokeColor=none;fillColor=none;align=left;verticalAlign=top;spacingLeft=4;spacingRight=4;overflow=hidden;rotatable=0;points=[[0,0.5],[1,0.5]];portConstraint=eastwest;whiteSpace=wrap;html=1;" parent="vmmLuZkF5NiIaxrYORKJ-37" vertex="1">
          <mxGeometry y="198" width="520" height="352" as="geometry" />
        </mxCell>
        <mxCell id="vmmLuZkF5NiIaxrYORKJ-45" value="&lt;p style=&quot;margin:0px;margin-top:4px;text-align:center;&quot;&gt;&lt;i&gt;&amp;lt;&amp;lt;Interface&amp;gt;&amp;gt;&lt;/i&gt;&lt;br&gt;&lt;b&gt;ISampleState&lt;/b&gt;&lt;/p&gt;&lt;hr size=&quot;1&quot; style=&quot;border-style:solid;&quot;&gt;&lt;p style=&quot;margin:0px;margin-left:4px;&quot;&gt;+changeState(sample: Sample): void&lt;/p&gt;&lt;p style=&quot;margin:0px;margin-left:4px;&quot;&gt;+isVaild(expertise: EUserState): Boolean&lt;/p&gt;&lt;p style=&quot;margin:0px;margin-left:4px;&quot;&gt;+ checkStateChange(expertise: EUserState, sample:Sample, opinion:OpinionValue():void&lt;/p&gt;&lt;p style=&quot;margin:0px;margin-left:4px;&quot;&gt;+ nivelDeVerificaion();&lt;/p&gt;&lt;p style=&quot;margin:0px;margin-left:4px;&quot;&gt;+ resilt(sample: Sample): OpinionValue&lt;/p&gt;" style="verticalAlign=top;align=left;overflow=fill;html=1;whiteSpace=wrap;fillStyle=auto;fillColor=none;strokeColor=default;" parent="vmmLuZkF5NiIaxrYORKJ-71" vertex="1">
          <mxGeometry x="380" y="650" width="280" height="160" as="geometry" />
        </mxCell>
        <mxCell id="vmmLuZkF5NiIaxrYORKJ-46" value="&lt;p style=&quot;margin:0px;margin-top:4px;text-align:center;&quot;&gt;&lt;i&gt;Open&lt;/i&gt;&lt;/p&gt;&lt;hr size=&quot;1&quot; style=&quot;border-style:solid;&quot;&gt;&lt;p style=&quot;margin:0px;margin-left:4px;&quot;&gt;+changeState(sample: Sample): void&lt;/p&gt;&lt;p style=&quot;margin:0px;margin-left:4px;&quot;&gt;+isVaild(expertise: EUserState): Boolean&lt;/p&gt;&lt;p style=&quot;margin:0px;margin-left:4px;&quot;&gt;+ checkStateChange(expertise: EUserState, sample:Sample, opinion:OpinionValue():void&lt;/p&gt;&lt;p style=&quot;margin:0px;margin-left:4px;&quot;&gt;+ nivelDeVerificaion();&lt;/p&gt;&lt;p style=&quot;margin:0px;margin-left:4px;&quot;&gt;+ resilt(sample: Sample): OpinionValue&lt;/p&gt;" style="verticalAlign=top;align=left;overflow=fill;html=1;whiteSpace=wrap;fillStyle=auto;fillColor=none;strokeColor=default;" parent="vmmLuZkF5NiIaxrYORKJ-71" vertex="1">
          <mxGeometry x="70" y="870" width="270" height="150" as="geometry" />
        </mxCell>
        <mxCell id="vmmLuZkF5NiIaxrYORKJ-47" value="&lt;p style=&quot;margin:0px;margin-top:4px;text-align:center;&quot;&gt;&lt;i&gt;ExpertOnly&lt;/i&gt;&lt;/p&gt;&lt;hr size=&quot;1&quot; style=&quot;border-style:solid;&quot;&gt;&lt;p style=&quot;margin:0px;margin-left:4px;&quot;&gt;+changeState(sample: Sample): void&lt;/p&gt;&lt;p style=&quot;margin:0px;margin-left:4px;&quot;&gt;+isVaild(expertise: EUserState): Boolean&lt;/p&gt;&lt;p style=&quot;margin:0px;margin-left:4px;&quot;&gt;+ checkStateChange(expertise: EUserState, sample:Sample, opinion:OpinionValue():void&lt;/p&gt;&lt;p style=&quot;margin:0px;margin-left:4px;&quot;&gt;+ nivelDeVerificaion();&lt;/p&gt;&lt;p style=&quot;margin:0px;margin-left:4px;&quot;&gt;+ resilt(sample: Sample): OpinionValue&lt;/p&gt;" style="verticalAlign=top;align=left;overflow=fill;html=1;whiteSpace=wrap;fillStyle=auto;fillColor=none;strokeColor=default;" parent="vmmLuZkF5NiIaxrYORKJ-71" vertex="1">
          <mxGeometry x="370" y="870" width="270" height="140" as="geometry" />
        </mxCell>
        <mxCell id="vmmLuZkF5NiIaxrYORKJ-48" value="&lt;p style=&quot;margin:0px;margin-top:4px;text-align:center;&quot;&gt;&lt;i&gt;Closed&lt;/i&gt;&lt;/p&gt;&lt;hr size=&quot;1&quot; style=&quot;border-style:solid;&quot;&gt;&lt;p style=&quot;margin:0px;margin-left:4px;&quot;&gt;+changeState(sample: Sample): void&lt;/p&gt;&lt;p style=&quot;margin:0px;margin-left:4px;&quot;&gt;+isVaild(expertise: EUserState): Boolean&lt;/p&gt;&lt;p style=&quot;margin:0px;margin-left:4px;&quot;&gt;+ checkStateChange(expertise: EUserState, sample:Sample, opinion:OpinionValue():void&lt;/p&gt;&lt;p style=&quot;margin:0px;margin-left:4px;&quot;&gt;+ nivelDeVerificaion();&lt;/p&gt;&lt;p style=&quot;margin:0px;margin-left:4px;&quot;&gt;+ resilt(sample: Sample): OpinionValue&lt;/p&gt;" style="verticalAlign=top;align=left;overflow=fill;html=1;whiteSpace=wrap;fillStyle=auto;fillColor=none;strokeColor=default;" parent="vmmLuZkF5NiIaxrYORKJ-71" vertex="1">
          <mxGeometry x="680" y="870" width="270" height="160" as="geometry" />
        </mxCell>
        <mxCell id="vmmLuZkF5NiIaxrYORKJ-50" style="rounded=0;orthogonalLoop=1;jettySize=auto;html=1;exitX=0.75;exitY=0;exitDx=0;exitDy=0;strokeColor=default;dashed=1;endArrow=block;endFill=0;endSize=12;" parent="vmmLuZkF5NiIaxrYORKJ-71" source="vmmLuZkF5NiIaxrYORKJ-46" target="vmmLuZkF5NiIaxrYORKJ-45" edge="1">
          <mxGeometry relative="1" as="geometry">
            <mxPoint x="404" y="772" as="targetPoint" />
          </mxGeometry>
        </mxCell>
        <mxCell id="vmmLuZkF5NiIaxrYORKJ-51" style="rounded=0;orthogonalLoop=1;jettySize=auto;html=1;exitX=0.75;exitY=0;exitDx=0;exitDy=0;entryX=0.53;entryY=0.986;entryDx=0;entryDy=0;entryPerimeter=0;endSize=12;dashed=1;endArrow=block;endFill=0;" parent="vmmLuZkF5NiIaxrYORKJ-71" source="vmmLuZkF5NiIaxrYORKJ-47" target="vmmLuZkF5NiIaxrYORKJ-45" edge="1">
          <mxGeometry relative="1" as="geometry" />
        </mxCell>
        <mxCell id="vmmLuZkF5NiIaxrYORKJ-52" style="rounded=0;orthogonalLoop=1;jettySize=auto;html=1;exitX=0.25;exitY=0;exitDx=0;exitDy=0;entryX=0.91;entryY=1.013;entryDx=0;entryDy=0;entryPerimeter=0;dashed=1;endArrow=block;endFill=0;endSize=12;" parent="vmmLuZkF5NiIaxrYORKJ-71" source="vmmLuZkF5NiIaxrYORKJ-48" target="vmmLuZkF5NiIaxrYORKJ-45" edge="1">
          <mxGeometry relative="1" as="geometry" />
        </mxCell>
        <mxCell id="vmmLuZkF5NiIaxrYORKJ-53" value="&lt;font style=&quot;font-size: 15px;&quot;&gt;state&lt;/font&gt;" style="html=1;verticalAlign=bottom;endArrow=block;curved=0;rounded=0;exitX=0.794;exitY=1.004;exitDx=0;exitDy=0;exitPerimeter=0;entryX=0.448;entryY=-0.025;entryDx=0;entryDy=0;entryPerimeter=0;" parent="vmmLuZkF5NiIaxrYORKJ-71" source="vmmLuZkF5NiIaxrYORKJ-40" target="vmmLuZkF5NiIaxrYORKJ-45" edge="1">
          <mxGeometry width="80" relative="1" as="geometry">
            <mxPoint x="470" y="620" as="sourcePoint" />
            <mxPoint x="550" y="620" as="targetPoint" />
          </mxGeometry>
        </mxCell>
        <mxCell id="6KkaSoD32rxEe_C6K4QG-12" value="" style="group" vertex="1" connectable="0" parent="vmmLuZkF5NiIaxrYORKJ-71">
          <mxGeometry x="640" y="-70" width="693" height="620" as="geometry" />
        </mxCell>
        <mxCell id="vmmLuZkF5NiIaxrYORKJ-55" value="Position" style="swimlane;fontStyle=1;align=center;verticalAlign=top;childLayout=stackLayout;horizontal=1;startSize=26;horizontalStack=0;resizeParent=1;resizeParentMax=0;resizeLast=0;collapsible=1;marginBottom=0;whiteSpace=wrap;html=1;" parent="6KkaSoD32rxEe_C6K4QG-12" vertex="1">
          <mxGeometry x="70" width="540" height="250" as="geometry" />
        </mxCell>
        <mxCell id="vmmLuZkF5NiIaxrYORKJ-56" value="+ latitude: double&lt;div&gt;+ longitude: double&lt;/div&gt;" style="text;strokeColor=none;fillColor=none;align=left;verticalAlign=top;spacingLeft=4;spacingRight=4;overflow=hidden;rotatable=0;points=[[0,0.5],[1,0.5]];portConstraint=eastwest;whiteSpace=wrap;html=1;" parent="vmmLuZkF5NiIaxrYORKJ-55" vertex="1">
          <mxGeometry y="26" width="540" height="54" as="geometry" />
        </mxCell>
        <mxCell id="vmmLuZkF5NiIaxrYORKJ-57" value="" style="line;strokeWidth=1;fillColor=none;align=left;verticalAlign=middle;spacingTop=-1;spacingLeft=3;spacingRight=3;rotatable=0;labelPosition=right;points=[];portConstraint=eastwest;strokeColor=inherit;" parent="vmmLuZkF5NiIaxrYORKJ-55" vertex="1">
          <mxGeometry y="80" width="540" height="8" as="geometry" />
        </mxCell>
        <mxCell id="vmmLuZkF5NiIaxrYORKJ-58" value="&lt;div&gt;&lt;u&gt;+ new(double, double): void&lt;/u&gt;&lt;/div&gt;&lt;div&gt;&lt;br&gt;&lt;/div&gt;&lt;div&gt;+ getDistanceTo(position:Position, mu:MesureUnit): double&lt;/div&gt;&lt;div&gt;+ positionsInRangeToMe(positions:Position[0..*], :radius:double, mU:MeasureUnit):Position[0..*]&lt;/div&gt;&lt;div&gt;+ getSamplesInRangeToMe(samples:Sample[0..*], radius:double, mu:MesureUnit):Samples[0..*]&lt;/div&gt;&lt;div&gt;&lt;br&gt;&lt;/div&gt;&lt;div&gt;//Getters&lt;/div&gt;&lt;div&gt;+ getLatitude():double&lt;/div&gt;&lt;div&gt;+ getLongitude():double&lt;/div&gt;" style="text;strokeColor=none;fillColor=none;align=left;verticalAlign=top;spacingLeft=4;spacingRight=4;overflow=hidden;rotatable=0;points=[[0,0.5],[1,0.5]];portConstraint=eastwest;whiteSpace=wrap;html=1;" parent="vmmLuZkF5NiIaxrYORKJ-55" vertex="1">
          <mxGeometry y="88" width="540" height="162" as="geometry" />
        </mxCell>
        <mxCell id="vmmLuZkF5NiIaxrYORKJ-69" value="" style="group" parent="6KkaSoD32rxEe_C6K4QG-12" vertex="1" connectable="0">
          <mxGeometry x="283" y="330" width="410" height="284" as="geometry" />
        </mxCell>
        <mxCell id="vmmLuZkF5NiIaxrYORKJ-59" value="Meters" style="swimlane;fontStyle=1;align=center;verticalAlign=top;childLayout=stackLayout;horizontal=1;startSize=26;horizontalStack=0;resizeParent=1;resizeParentMax=0;resizeLast=0;collapsible=1;marginBottom=0;whiteSpace=wrap;html=1;" parent="vmmLuZkF5NiIaxrYORKJ-69" vertex="1">
          <mxGeometry y="204" width="180" height="80" as="geometry" />
        </mxCell>
        <mxCell id="vmmLuZkF5NiIaxrYORKJ-61" value="+ convert(kms:dobule):double" style="text;strokeColor=none;fillColor=none;align=left;verticalAlign=top;spacingLeft=4;spacingRight=4;overflow=hidden;rotatable=0;points=[[0,0.5],[1,0.5]];portConstraint=eastwest;whiteSpace=wrap;html=1;" parent="vmmLuZkF5NiIaxrYORKJ-59" vertex="1">
          <mxGeometry y="26" width="180" height="46" as="geometry" />
        </mxCell>
        <mxCell id="vmmLuZkF5NiIaxrYORKJ-60" value="" style="line;strokeWidth=1;fillColor=none;align=left;verticalAlign=middle;spacingTop=-1;spacingLeft=3;spacingRight=3;rotatable=0;labelPosition=right;points=[];portConstraint=eastwest;strokeColor=inherit;" parent="vmmLuZkF5NiIaxrYORKJ-59" vertex="1">
          <mxGeometry y="72" width="180" height="8" as="geometry" />
        </mxCell>
        <mxCell id="vmmLuZkF5NiIaxrYORKJ-62" value="Kilometers" style="swimlane;fontStyle=1;align=center;verticalAlign=top;childLayout=stackLayout;horizontal=1;startSize=26;horizontalStack=0;resizeParent=1;resizeParentMax=0;resizeLast=0;collapsible=1;marginBottom=0;whiteSpace=wrap;html=1;" parent="vmmLuZkF5NiIaxrYORKJ-69" vertex="1">
          <mxGeometry x="210" y="204" width="200" height="80" as="geometry" />
        </mxCell>
        <mxCell id="vmmLuZkF5NiIaxrYORKJ-64" value="+ convert(kms:dobule):double" style="text;strokeColor=none;fillColor=none;align=left;verticalAlign=top;spacingLeft=4;spacingRight=4;overflow=hidden;rotatable=0;points=[[0,0.5],[1,0.5]];portConstraint=eastwest;whiteSpace=wrap;html=1;" parent="vmmLuZkF5NiIaxrYORKJ-62" vertex="1">
          <mxGeometry y="26" width="200" height="46" as="geometry" />
        </mxCell>
        <mxCell id="vmmLuZkF5NiIaxrYORKJ-63" value="" style="line;strokeWidth=1;fillColor=none;align=left;verticalAlign=middle;spacingTop=-1;spacingLeft=3;spacingRight=3;rotatable=0;labelPosition=right;points=[];portConstraint=eastwest;strokeColor=inherit;" parent="vmmLuZkF5NiIaxrYORKJ-62" vertex="1">
          <mxGeometry y="72" width="200" height="8" as="geometry" />
        </mxCell>
        <mxCell id="vmmLuZkF5NiIaxrYORKJ-65" value="&lt;p style=&quot;margin:0px;margin-top:4px;text-align:center;&quot;&gt;&lt;i&gt;&amp;lt;&amp;lt;Interface&amp;gt;&amp;gt;&lt;/i&gt;&lt;br&gt;&lt;b&gt;MeasureUnit&lt;/b&gt;&lt;/p&gt;&lt;hr size=&quot;1&quot; style=&quot;border-style:solid;&quot;&gt;&lt;p style=&quot;margin:0px;margin-left:4px;&quot;&gt;+ convert(kms:dobule):double&lt;/p&gt;" style="verticalAlign=top;align=left;overflow=fill;html=1;whiteSpace=wrap;fillColor=none;" parent="vmmLuZkF5NiIaxrYORKJ-69" vertex="1">
          <mxGeometry x="43" y="-30" width="190" height="140" as="geometry" />
        </mxCell>
        <mxCell id="vmmLuZkF5NiIaxrYORKJ-66" value="" style="endArrow=block;dashed=1;endFill=0;endSize=12;html=1;rounded=0;exitX=0.483;exitY=-0.05;exitDx=0;exitDy=0;exitPerimeter=0;" parent="vmmLuZkF5NiIaxrYORKJ-69" source="vmmLuZkF5NiIaxrYORKJ-59" target="vmmLuZkF5NiIaxrYORKJ-65" edge="1">
          <mxGeometry width="160" relative="1" as="geometry">
            <mxPoint x="53" y="174" as="sourcePoint" />
            <mxPoint x="-77" y="94" as="targetPoint" />
          </mxGeometry>
        </mxCell>
        <mxCell id="vmmLuZkF5NiIaxrYORKJ-67" value="" style="endArrow=block;dashed=1;endFill=0;endSize=12;html=1;rounded=0;exitX=0.107;exitY=-0.005;exitDx=0;exitDy=0;exitPerimeter=0;" parent="vmmLuZkF5NiIaxrYORKJ-69" source="vmmLuZkF5NiIaxrYORKJ-62" target="vmmLuZkF5NiIaxrYORKJ-65" edge="1">
          <mxGeometry width="160" relative="1" as="geometry">
            <mxPoint x="241.96551724137908" y="174" as="sourcePoint" />
            <mxPoint x="-73" y="114" as="targetPoint" />
          </mxGeometry>
        </mxCell>
        <mxCell id="vmmLuZkF5NiIaxrYORKJ-72" value="&lt;font style=&quot;font-size: 15px;&quot;&gt;position&lt;/font&gt;" style="html=1;verticalAlign=bottom;endArrow=block;curved=0;rounded=0;exitX=1;exitY=0.307;exitDx=0;exitDy=0;exitPerimeter=0;" parent="vmmLuZkF5NiIaxrYORKJ-71" source="vmmLuZkF5NiIaxrYORKJ-38" target="vmmLuZkF5NiIaxrYORKJ-58" edge="1">
          <mxGeometry width="80" relative="1" as="geometry">
            <mxPoint x="650" y="590" as="sourcePoint" />
            <mxPoint x="-380" y="130" as="targetPoint" />
          </mxGeometry>
        </mxCell>
        <mxCell id="vmmLuZkF5NiIaxrYORKJ-81" value="" style="group" parent="6KkaSoD32rxEe_C6K4QG-3" vertex="1" connectable="0">
          <mxGeometry y="80" width="140" height="380" as="geometry" />
        </mxCell>
        <mxCell id="vmmLuZkF5NiIaxrYORKJ-79" value="&lt;div&gt;&amp;lt;&amp;lt;enum&amp;gt;&amp;gt;&lt;/div&gt;&lt;div&gt;OpinionValue&lt;/div&gt;" style="swimlane;fontStyle=0;childLayout=stackLayout;horizontal=1;startSize=30;fillColor=none;horizontalStack=0;resizeParent=1;resizeParentMax=0;resizeLast=0;collapsible=1;marginBottom=0;whiteSpace=wrap;html=1;" parent="vmmLuZkF5NiIaxrYORKJ-81" vertex="1">
          <mxGeometry y="118" width="140" height="150" as="geometry" />
        </mxCell>
        <mxCell id="vmmLuZkF5NiIaxrYORKJ-80" value="&lt;div&gt;Vinchuca_Infestans&lt;/div&gt;&lt;div&gt;Vinchuca_Sordida&lt;/div&gt;&lt;div&gt;Vinchuca_Guasayana&lt;/div&gt;&lt;div&gt;Chinche_Foliada&lt;/div&gt;&lt;div&gt;Pathia_Chinche&lt;/div&gt;&lt;div&gt;Ninguna&lt;/div&gt;&lt;div&gt;ImagenPocoClara&lt;/div&gt;" style="text;strokeColor=none;fillColor=none;align=left;verticalAlign=top;spacingLeft=4;spacingRight=4;overflow=hidden;rotatable=0;points=[[0,0.5],[1,0.5]];portConstraint=eastwest;whiteSpace=wrap;html=1;" parent="vmmLuZkF5NiIaxrYORKJ-79" vertex="1">
          <mxGeometry y="30" width="140" height="120" as="geometry" />
        </mxCell>
        <mxCell id="vmmLuZkF5NiIaxrYORKJ-103" value="Review" style="swimlane;fontStyle=1;align=center;verticalAlign=top;childLayout=stackLayout;horizontal=1;startSize=26;horizontalStack=0;resizeParent=1;resizeParentMax=0;resizeLast=0;collapsible=1;marginBottom=0;whiteSpace=wrap;html=1;" parent="6KkaSoD32rxEe_C6K4QG-3" vertex="1">
          <mxGeometry x="240" y="230" width="320" height="220" as="geometry" />
        </mxCell>
        <mxCell id="vmmLuZkF5NiIaxrYORKJ-104" value="- opinion: OpinionValue&lt;div&gt;- expertise: String&lt;/div&gt;&lt;div&gt;- user: User&lt;/div&gt;&lt;div&gt;- expertise: EUserState&lt;/div&gt;&lt;div&gt;- fechaReview: LocalDate&lt;/div&gt;" style="text;strokeColor=none;fillColor=none;align=left;verticalAlign=top;spacingLeft=4;spacingRight=4;overflow=hidden;rotatable=0;points=[[0,0.5],[1,0.5]];portConstraint=eastwest;whiteSpace=wrap;html=1;" parent="vmmLuZkF5NiIaxrYORKJ-103" vertex="1">
          <mxGeometry y="26" width="320" height="84" as="geometry" />
        </mxCell>
        <mxCell id="vmmLuZkF5NiIaxrYORKJ-105" value="" style="line;strokeWidth=1;fillColor=none;align=left;verticalAlign=middle;spacingTop=-1;spacingLeft=3;spacingRight=3;rotatable=0;labelPosition=right;points=[];portConstraint=eastwest;strokeColor=inherit;" parent="vmmLuZkF5NiIaxrYORKJ-103" vertex="1">
          <mxGeometry y="110" width="320" height="8" as="geometry" />
        </mxCell>
        <mxCell id="vmmLuZkF5NiIaxrYORKJ-106" value="&lt;u&gt;+ new (OpinionValue, User, LocalDate)&lt;/u&gt;&lt;div&gt;+ getOpinion():OpinionValue&lt;/div&gt;&lt;div&gt;+ getExpertise():EUserState&lt;/div&gt;&lt;div&gt;+ getUser():User&lt;/div&gt;&lt;div&gt;+ getFechaReview():LocalDate&lt;/div&gt;" style="text;strokeColor=none;fillColor=none;align=left;verticalAlign=top;spacingLeft=4;spacingRight=4;overflow=hidden;rotatable=0;points=[[0,0.5],[1,0.5]];portConstraint=eastwest;whiteSpace=wrap;html=1;" parent="vmmLuZkF5NiIaxrYORKJ-103" vertex="1">
          <mxGeometry y="118" width="320" height="102" as="geometry" />
        </mxCell>
        <mxCell id="vmmLuZkF5NiIaxrYORKJ-109" value="" style="group" parent="6KkaSoD32rxEe_C6K4QG-3" vertex="1" connectable="0">
          <mxGeometry x="475" y="310" width="30" height="30" as="geometry" />
        </mxCell>
        <mxCell id="vmmLuZkF5NiIaxrYORKJ-73" value="&lt;div&gt;&amp;lt;&amp;lt;enum&amp;gt;&amp;gt;&lt;/div&gt;&lt;div&gt;EVinchuca&lt;/div&gt;" style="swimlane;fontStyle=0;childLayout=stackLayout;horizontal=1;startSize=30;fillColor=none;horizontalStack=0;resizeParent=1;resizeParentMax=0;resizeLast=0;collapsible=1;marginBottom=0;whiteSpace=wrap;html=1;" parent="6KkaSoD32rxEe_C6K4QG-3" vertex="1">
          <mxGeometry x="410" width="140" height="100" as="geometry" />
        </mxCell>
        <mxCell id="vmmLuZkF5NiIaxrYORKJ-75" value="&lt;div&gt;Infestans&lt;/div&gt;&lt;div&gt;Sordida&lt;/div&gt;&lt;div&gt;Guasayana&lt;/div&gt;" style="text;strokeColor=none;fillColor=none;align=left;verticalAlign=top;spacingLeft=4;spacingRight=4;overflow=hidden;rotatable=0;points=[[0,0.5],[1,0.5]];portConstraint=eastwest;whiteSpace=wrap;html=1;" parent="vmmLuZkF5NiIaxrYORKJ-73" vertex="1">
          <mxGeometry y="30" width="140" height="70" as="geometry" />
        </mxCell>
        <mxCell id="vmmLuZkF5NiIaxrYORKJ-155" value="&lt;font style=&quot;font-size: 15px;&quot;&gt;opinion&lt;/font&gt;" style="html=1;verticalAlign=bottom;endArrow=block;curved=0;rounded=0;exitX=0.004;exitY=0.428;exitDx=0;exitDy=0;exitPerimeter=0;entryX=1.009;entryY=0.215;entryDx=0;entryDy=0;entryPerimeter=0;" parent="6KkaSoD32rxEe_C6K4QG-3" source="vmmLuZkF5NiIaxrYORKJ-104" target="vmmLuZkF5NiIaxrYORKJ-80" edge="1">
          <mxGeometry width="80" relative="1" as="geometry">
            <mxPoint x="250" y="180" as="sourcePoint" />
            <mxPoint x="330" y="180" as="targetPoint" />
          </mxGeometry>
        </mxCell>
        <mxCell id="vmmLuZkF5NiIaxrYORKJ-156" value="&lt;font style=&quot;font-size: 15px;&quot;&gt;specie&lt;/font&gt;" style="html=1;verticalAlign=bottom;endArrow=block;curved=0;rounded=0;entryX=0.777;entryY=1.037;entryDx=0;entryDy=0;entryPerimeter=0;exitX=-0.001;exitY=0.153;exitDx=0;exitDy=0;exitPerimeter=0;" parent="6KkaSoD32rxEe_C6K4QG-3" source="vmmLuZkF5NiIaxrYORKJ-38" target="vmmLuZkF5NiIaxrYORKJ-75" edge="1">
          <mxGeometry width="80" relative="1" as="geometry">
            <mxPoint x="250" y="180" as="sourcePoint" />
            <mxPoint x="330" y="180" as="targetPoint" />
          </mxGeometry>
        </mxCell>
        <mxCell id="vmmLuZkF5NiIaxrYORKJ-108" value="&lt;font style=&quot;font-size: 20px;&quot;&gt;*&lt;/font&gt;" style="text;html=1;align=center;verticalAlign=middle;resizable=0;points=[];autosize=1;strokeColor=none;fillColor=none;" parent="6KkaSoD32rxEe_C6K4QG-3" vertex="1">
          <mxGeometry x="560" y="290" width="30" height="40" as="geometry" />
        </mxCell>
        <mxCell id="vmmLuZkF5NiIaxrYORKJ-107" value="&lt;font style=&quot;font-size: 15px;&quot;&gt;reviews&lt;/font&gt;" style="html=1;verticalAlign=bottom;endArrow=block;curved=0;rounded=0;entryX=0.998;entryY=0.796;entryDx=0;entryDy=0;entryPerimeter=0;exitX=-0.002;exitY=0.688;exitDx=0;exitDy=0;exitPerimeter=0;" parent="6KkaSoD32rxEe_C6K4QG-3" source="vmmLuZkF5NiIaxrYORKJ-38" target="vmmLuZkF5NiIaxrYORKJ-104" edge="1">
          <mxGeometry width="80" relative="1" as="geometry">
            <mxPoint x="838" y="375" as="sourcePoint" />
            <mxPoint x="630" y="230" as="targetPoint" />
          </mxGeometry>
        </mxCell>
        <mxCell id="6KkaSoD32rxEe_C6K4QG-6" value="&lt;font style=&quot;font-size: 20px;&quot;&gt;&lt;b&gt;&lt;font&gt;*&lt;/font&gt;&lt;/b&gt;&lt;/font&gt;" style="text;html=1;align=center;verticalAlign=middle;resizable=0;points=[];autosize=1;strokeColor=none;fillColor=none;" vertex="1" parent="6KkaSoD32rxEe_C6K4QG-3">
          <mxGeometry x="700" y="66" width="30" height="40" as="geometry" />
        </mxCell>
        <mxCell id="vmmLuZkF5NiIaxrYORKJ-100" value="&lt;b&gt;&lt;font style=&quot;font-size: 20px;&quot;&gt;*&lt;/font&gt;&lt;/b&gt;" style="text;html=1;align=center;verticalAlign=middle;resizable=0;points=[];autosize=1;strokeColor=none;fillColor=none;" parent="6KkaSoD32rxEe_C6K4QG-3" vertex="1">
          <mxGeometry x="860" y="66" width="30" height="40" as="geometry" />
        </mxCell>
        <mxCell id="6KkaSoD32rxEe_C6K4QG-19" value="&lt;font style=&quot;font-size: 15px;&quot;&gt;samples&lt;/font&gt;" style="html=1;verticalAlign=bottom;endArrow=block;rounded=0;entryX=0.279;entryY=0.007;entryDx=0;entryDy=0;entryPerimeter=0;" edge="1" parent="1" target="vmmLuZkF5NiIaxrYORKJ-37">
          <mxGeometry width="80" relative="1" as="geometry">
            <mxPoint x="780" y="-950" as="sourcePoint" />
            <mxPoint x="960" y="-255" as="targetPoint" />
          </mxGeometry>
        </mxCell>
        <mxCell id="6KkaSoD32rxEe_C6K4QG-20" value="&lt;font style=&quot;font-size: 15px;&quot;&gt;system&lt;/font&gt;" style="html=1;verticalAlign=bottom;endArrow=block;curved=0;rounded=0;exitX=0.558;exitY=0.011;exitDx=0;exitDy=0;exitPerimeter=0;entryX=0.429;entryY=0.996;entryDx=0;entryDy=0;entryPerimeter=0;" edge="1" parent="1" source="vmmLuZkF5NiIaxrYORKJ-37" target="vmmLuZkF5NiIaxrYORKJ-93">
          <mxGeometry width="80" relative="1" as="geometry">
            <mxPoint x="865" y="-660" as="sourcePoint" />
            <mxPoint x="770" y="-645" as="targetPoint" />
          </mxGeometry>
        </mxCell>
        <mxCell id="6KkaSoD32rxEe_C6K4QG-21" value="SearchEngine" style="swimlane;fontStyle=1;align=center;verticalAlign=top;childLayout=stackLayout;horizontal=1;startSize=26;horizontalStack=0;resizeParent=1;resizeParentMax=0;resizeLast=0;collapsible=1;marginBottom=0;whiteSpace=wrap;html=1;" vertex="1" parent="1">
          <mxGeometry x="600" y="-1380" width="520" height="70" as="geometry" />
        </mxCell>
        <mxCell id="6KkaSoD32rxEe_C6K4QG-23" value="" style="line;strokeWidth=1;fillColor=none;align=left;verticalAlign=middle;spacingTop=-1;spacingLeft=3;spacingRight=3;rotatable=0;labelPosition=right;points=[];portConstraint=eastwest;strokeColor=inherit;" vertex="1" parent="6KkaSoD32rxEe_C6K4QG-21">
          <mxGeometry y="26" width="520" height="8" as="geometry" />
        </mxCell>
        <mxCell id="6KkaSoD32rxEe_C6K4QG-24" value="+ buscar(samples: Sample[1..*], criteios: Criteio[0..*], operators:LogicalOperator): Sample[0..*]" style="text;strokeColor=none;fillColor=none;align=left;verticalAlign=top;spacingLeft=4;spacingRight=4;overflow=hidden;rotatable=0;points=[[0,0.5],[1,0.5]];portConstraint=eastwest;whiteSpace=wrap;html=1;" vertex="1" parent="6KkaSoD32rxEe_C6K4QG-21">
          <mxGeometry y="34" width="520" height="36" as="geometry" />
        </mxCell>
        <mxCell id="6KkaSoD32rxEe_C6K4QG-25" value="&lt;div&gt;&amp;lt;&amp;lt;abstract&amp;gt;&amp;gt;&lt;/div&gt;&lt;div&gt;Criterio&lt;/div&gt;" style="swimlane;fontStyle=1;align=center;verticalAlign=top;childLayout=stackLayout;horizontal=1;startSize=40;horizontalStack=0;resizeParent=1;resizeParentMax=0;resizeLast=0;collapsible=1;marginBottom=0;whiteSpace=wrap;html=1;" vertex="1" parent="1">
          <mxGeometry x="730" y="-1530" width="330" height="90" as="geometry" />
        </mxCell>
        <mxCell id="6KkaSoD32rxEe_C6K4QG-27" value="" style="line;strokeWidth=1;fillColor=none;align=left;verticalAlign=middle;spacingTop=-1;spacingLeft=3;spacingRight=3;rotatable=0;labelPosition=right;points=[];portConstraint=eastwest;strokeColor=inherit;" vertex="1" parent="6KkaSoD32rxEe_C6K4QG-25">
          <mxGeometry y="40" width="330" height="8" as="geometry" />
        </mxCell>
        <mxCell id="6KkaSoD32rxEe_C6K4QG-28" value="&lt;div&gt;+ lasQueCumplesCriteio(sample: Sample[0..*]&lt;/div&gt;&lt;div&gt;+&amp;nbsp;&lt;i&gt;cumpleCriterio(sample: Sample): boolean &amp;lt;&amp;lt;abstract&amp;gt;&amp;gt;&lt;/i&gt;&lt;/div&gt;" style="text;strokeColor=none;fillColor=none;align=left;verticalAlign=top;spacingLeft=4;spacingRight=4;overflow=hidden;rotatable=0;points=[[0,0.5],[1,0.5]];portConstraint=eastwest;whiteSpace=wrap;html=1;" vertex="1" parent="6KkaSoD32rxEe_C6K4QG-25">
          <mxGeometry y="48" width="330" height="42" as="geometry" />
        </mxCell>
        <mxCell id="6KkaSoD32rxEe_C6K4QG-32" value="FechaUltimaVotacionPosterior" style="swimlane;fontStyle=1;align=center;verticalAlign=top;childLayout=stackLayout;horizontal=1;startSize=26;horizontalStack=0;resizeParent=1;resizeParentMax=0;resizeLast=0;collapsible=1;marginBottom=0;whiteSpace=wrap;html=1;" vertex="1" parent="1">
          <mxGeometry x="40" y="-1700" width="390" height="100" as="geometry" />
        </mxCell>
        <mxCell id="6KkaSoD32rxEe_C6K4QG-33" value="- fechaUltimaVotacion: LocalDate" style="text;strokeColor=none;fillColor=none;align=left;verticalAlign=top;spacingLeft=4;spacingRight=4;overflow=hidden;rotatable=0;points=[[0,0.5],[1,0.5]];portConstraint=eastwest;whiteSpace=wrap;html=1;" vertex="1" parent="6KkaSoD32rxEe_C6K4QG-32">
          <mxGeometry y="26" width="390" height="26" as="geometry" />
        </mxCell>
        <mxCell id="6KkaSoD32rxEe_C6K4QG-34" value="" style="line;strokeWidth=1;fillColor=none;align=left;verticalAlign=middle;spacingTop=-1;spacingLeft=3;spacingRight=3;rotatable=0;labelPosition=right;points=[];portConstraint=eastwest;strokeColor=inherit;" vertex="1" parent="6KkaSoD32rxEe_C6K4QG-32">
          <mxGeometry y="52" width="390" height="8" as="geometry" />
        </mxCell>
        <mxCell id="6KkaSoD32rxEe_C6K4QG-35" value="&lt;div&gt;+ new(LocalDate)&lt;/div&gt;&lt;div&gt;+&amp;nbsp;cumpleCriterio(sample: Sample): boolean&lt;/div&gt;" style="text;strokeColor=none;fillColor=none;align=left;verticalAlign=top;spacingLeft=4;spacingRight=4;overflow=hidden;rotatable=0;points=[[0,0.5],[1,0.5]];portConstraint=eastwest;whiteSpace=wrap;html=1;" vertex="1" parent="6KkaSoD32rxEe_C6K4QG-32">
          <mxGeometry y="60" width="390" height="40" as="geometry" />
        </mxCell>
        <mxCell id="6KkaSoD32rxEe_C6K4QG-36" value="FechaCreacionPosterior" style="swimlane;fontStyle=1;align=center;verticalAlign=top;childLayout=stackLayout;horizontal=1;startSize=26;horizontalStack=0;resizeParent=1;resizeParentMax=0;resizeLast=0;collapsible=1;marginBottom=0;whiteSpace=wrap;html=1;" vertex="1" parent="1">
          <mxGeometry x="1710" y="-1700" width="390" height="100" as="geometry" />
        </mxCell>
        <mxCell id="6KkaSoD32rxEe_C6K4QG-37" value="- fechaCreacion: LocalDate" style="text;strokeColor=none;fillColor=none;align=left;verticalAlign=top;spacingLeft=4;spacingRight=4;overflow=hidden;rotatable=0;points=[[0,0.5],[1,0.5]];portConstraint=eastwest;whiteSpace=wrap;html=1;" vertex="1" parent="6KkaSoD32rxEe_C6K4QG-36">
          <mxGeometry y="26" width="390" height="26" as="geometry" />
        </mxCell>
        <mxCell id="6KkaSoD32rxEe_C6K4QG-38" value="" style="line;strokeWidth=1;fillColor=none;align=left;verticalAlign=middle;spacingTop=-1;spacingLeft=3;spacingRight=3;rotatable=0;labelPosition=right;points=[];portConstraint=eastwest;strokeColor=inherit;" vertex="1" parent="6KkaSoD32rxEe_C6K4QG-36">
          <mxGeometry y="52" width="390" height="8" as="geometry" />
        </mxCell>
        <mxCell id="6KkaSoD32rxEe_C6K4QG-39" value="&lt;div&gt;+ new(LocalDate)&lt;/div&gt;&lt;div&gt;+&amp;nbsp;cumpleCriterio(sample: Sample): boolean&lt;/div&gt;" style="text;strokeColor=none;fillColor=none;align=left;verticalAlign=top;spacingLeft=4;spacingRight=4;overflow=hidden;rotatable=0;points=[[0,0.5],[1,0.5]];portConstraint=eastwest;whiteSpace=wrap;html=1;" vertex="1" parent="6KkaSoD32rxEe_C6K4QG-36">
          <mxGeometry y="60" width="390" height="40" as="geometry" />
        </mxCell>
        <mxCell id="6KkaSoD32rxEe_C6K4QG-40" value="FechaCreacionAnterior" style="swimlane;fontStyle=1;align=center;verticalAlign=top;childLayout=stackLayout;horizontal=1;startSize=26;horizontalStack=0;resizeParent=1;resizeParentMax=0;resizeLast=0;collapsible=1;marginBottom=0;whiteSpace=wrap;html=1;" vertex="1" parent="1">
          <mxGeometry x="460" y="-1700" width="390" height="100" as="geometry" />
        </mxCell>
        <mxCell id="6KkaSoD32rxEe_C6K4QG-41" value="- fechaCreacion: LocalDate" style="text;strokeColor=none;fillColor=none;align=left;verticalAlign=top;spacingLeft=4;spacingRight=4;overflow=hidden;rotatable=0;points=[[0,0.5],[1,0.5]];portConstraint=eastwest;whiteSpace=wrap;html=1;" vertex="1" parent="6KkaSoD32rxEe_C6K4QG-40">
          <mxGeometry y="26" width="390" height="26" as="geometry" />
        </mxCell>
        <mxCell id="6KkaSoD32rxEe_C6K4QG-42" value="" style="line;strokeWidth=1;fillColor=none;align=left;verticalAlign=middle;spacingTop=-1;spacingLeft=3;spacingRight=3;rotatable=0;labelPosition=right;points=[];portConstraint=eastwest;strokeColor=inherit;" vertex="1" parent="6KkaSoD32rxEe_C6K4QG-40">
          <mxGeometry y="52" width="390" height="8" as="geometry" />
        </mxCell>
        <mxCell id="6KkaSoD32rxEe_C6K4QG-43" value="&lt;div&gt;&lt;i&gt;+ new(LocalDate)&lt;/i&gt;&lt;/div&gt;&lt;div&gt;+&amp;nbsp;cumpleCriterio(sample: Sample): boolean&lt;/div&gt;" style="text;strokeColor=none;fillColor=none;align=left;verticalAlign=top;spacingLeft=4;spacingRight=4;overflow=hidden;rotatable=0;points=[[0,0.5],[1,0.5]];portConstraint=eastwest;whiteSpace=wrap;html=1;" vertex="1" parent="6KkaSoD32rxEe_C6K4QG-40">
          <mxGeometry y="60" width="390" height="40" as="geometry" />
        </mxCell>
        <mxCell id="6KkaSoD32rxEe_C6K4QG-44" value="NivelDeVerificacion" style="swimlane;fontStyle=1;align=center;verticalAlign=top;childLayout=stackLayout;horizontal=1;startSize=26;horizontalStack=0;resizeParent=1;resizeParentMax=0;resizeLast=0;collapsible=1;marginBottom=0;whiteSpace=wrap;html=1;" vertex="1" parent="1">
          <mxGeometry x="-370" y="-1700" width="390" height="100" as="geometry" />
        </mxCell>
        <mxCell id="6KkaSoD32rxEe_C6K4QG-45" value="- nivelDeVerificacion: String" style="text;strokeColor=none;fillColor=none;align=left;verticalAlign=top;spacingLeft=4;spacingRight=4;overflow=hidden;rotatable=0;points=[[0,0.5],[1,0.5]];portConstraint=eastwest;whiteSpace=wrap;html=1;" vertex="1" parent="6KkaSoD32rxEe_C6K4QG-44">
          <mxGeometry y="26" width="390" height="26" as="geometry" />
        </mxCell>
        <mxCell id="6KkaSoD32rxEe_C6K4QG-46" value="" style="line;strokeWidth=1;fillColor=none;align=left;verticalAlign=middle;spacingTop=-1;spacingLeft=3;spacingRight=3;rotatable=0;labelPosition=right;points=[];portConstraint=eastwest;strokeColor=inherit;" vertex="1" parent="6KkaSoD32rxEe_C6K4QG-44">
          <mxGeometry y="52" width="390" height="8" as="geometry" />
        </mxCell>
        <mxCell id="6KkaSoD32rxEe_C6K4QG-47" value="&lt;div&gt;+ new(String)&lt;/div&gt;&lt;div&gt;+&amp;nbsp;cumpleCriterio(sample: Sample): boolean&lt;/div&gt;" style="text;strokeColor=none;fillColor=none;align=left;verticalAlign=top;spacingLeft=4;spacingRight=4;overflow=hidden;rotatable=0;points=[[0,0.5],[1,0.5]];portConstraint=eastwest;whiteSpace=wrap;html=1;" vertex="1" parent="6KkaSoD32rxEe_C6K4QG-44">
          <mxGeometry y="60" width="390" height="40" as="geometry" />
        </mxCell>
        <mxCell id="6KkaSoD32rxEe_C6K4QG-48" value="FechaUltimaVotacionAnterior" style="swimlane;fontStyle=1;align=center;verticalAlign=top;childLayout=stackLayout;horizontal=1;startSize=26;horizontalStack=0;resizeParent=1;resizeParentMax=0;resizeLast=0;collapsible=1;marginBottom=0;whiteSpace=wrap;html=1;" vertex="1" parent="1">
          <mxGeometry x="880" y="-1700" width="390" height="100" as="geometry" />
        </mxCell>
        <mxCell id="6KkaSoD32rxEe_C6K4QG-49" value="- fechaUltimaVotacion: LocalDate" style="text;strokeColor=none;fillColor=none;align=left;verticalAlign=top;spacingLeft=4;spacingRight=4;overflow=hidden;rotatable=0;points=[[0,0.5],[1,0.5]];portConstraint=eastwest;whiteSpace=wrap;html=1;" vertex="1" parent="6KkaSoD32rxEe_C6K4QG-48">
          <mxGeometry y="26" width="390" height="26" as="geometry" />
        </mxCell>
        <mxCell id="6KkaSoD32rxEe_C6K4QG-50" value="" style="line;strokeWidth=1;fillColor=none;align=left;verticalAlign=middle;spacingTop=-1;spacingLeft=3;spacingRight=3;rotatable=0;labelPosition=right;points=[];portConstraint=eastwest;strokeColor=inherit;" vertex="1" parent="6KkaSoD32rxEe_C6K4QG-48">
          <mxGeometry y="52" width="390" height="8" as="geometry" />
        </mxCell>
        <mxCell id="6KkaSoD32rxEe_C6K4QG-51" value="&lt;div&gt;+ new(LocalDate)&lt;/div&gt;&lt;div&gt;+&amp;nbsp;cumpleCriterio(sample: Sample): boolean&lt;/div&gt;" style="text;strokeColor=none;fillColor=none;align=left;verticalAlign=top;spacingLeft=4;spacingRight=4;overflow=hidden;rotatable=0;points=[[0,0.5],[1,0.5]];portConstraint=eastwest;whiteSpace=wrap;html=1;" vertex="1" parent="6KkaSoD32rxEe_C6K4QG-48">
          <mxGeometry y="60" width="390" height="40" as="geometry" />
        </mxCell>
        <mxCell id="6KkaSoD32rxEe_C6K4QG-52" value="TipoDetectado" style="swimlane;fontStyle=1;align=center;verticalAlign=top;childLayout=stackLayout;horizontal=1;startSize=26;horizontalStack=0;resizeParent=1;resizeParentMax=0;resizeLast=0;collapsible=1;marginBottom=0;whiteSpace=wrap;html=1;" vertex="1" parent="1">
          <mxGeometry x="1300" y="-1700" width="390" height="100" as="geometry" />
        </mxCell>
        <mxCell id="6KkaSoD32rxEe_C6K4QG-53" value="- tipoDetectado: OpinionValue" style="text;strokeColor=none;fillColor=none;align=left;verticalAlign=top;spacingLeft=4;spacingRight=4;overflow=hidden;rotatable=0;points=[[0,0.5],[1,0.5]];portConstraint=eastwest;whiteSpace=wrap;html=1;" vertex="1" parent="6KkaSoD32rxEe_C6K4QG-52">
          <mxGeometry y="26" width="390" height="26" as="geometry" />
        </mxCell>
        <mxCell id="6KkaSoD32rxEe_C6K4QG-54" value="" style="line;strokeWidth=1;fillColor=none;align=left;verticalAlign=middle;spacingTop=-1;spacingLeft=3;spacingRight=3;rotatable=0;labelPosition=right;points=[];portConstraint=eastwest;strokeColor=inherit;" vertex="1" parent="6KkaSoD32rxEe_C6K4QG-52">
          <mxGeometry y="52" width="390" height="8" as="geometry" />
        </mxCell>
        <mxCell id="6KkaSoD32rxEe_C6K4QG-55" value="&lt;div&gt;+ new(OpinionValue)&lt;/div&gt;&lt;div&gt;+&amp;nbsp;cumpleCriterio(sample: Sample): boolean&lt;/div&gt;" style="text;strokeColor=none;fillColor=none;align=left;verticalAlign=top;spacingLeft=4;spacingRight=4;overflow=hidden;rotatable=0;points=[[0,0.5],[1,0.5]];portConstraint=eastwest;whiteSpace=wrap;html=1;" vertex="1" parent="6KkaSoD32rxEe_C6K4QG-52">
          <mxGeometry y="60" width="390" height="40" as="geometry" />
        </mxCell>
        <mxCell id="6KkaSoD32rxEe_C6K4QG-56" value="Extends" style="endArrow=none;endSize=16;endFill=0;html=1;rounded=0;flowAnimation=0;shadow=0;exitX=0.359;exitY=0.014;exitDx=0;exitDy=0;exitPerimeter=0;startFill=0;" edge="1" parent="1" source="6KkaSoD32rxEe_C6K4QG-25">
          <mxGeometry width="160" relative="1" as="geometry">
            <mxPoint x="480" y="-1510" as="sourcePoint" />
            <mxPoint x="850" y="-1570" as="targetPoint" />
          </mxGeometry>
        </mxCell>
        <mxCell id="6KkaSoD32rxEe_C6K4QG-60" value="" style="endArrow=none;endSize=16;endFill=0;html=1;rounded=0;flowAnimation=0;shadow=0;startFill=0;" edge="1" parent="1">
          <mxGeometry width="160" relative="1" as="geometry">
            <mxPoint x="-310" y="-1570" as="sourcePoint" />
            <mxPoint x="1840" y="-1570" as="targetPoint" />
          </mxGeometry>
        </mxCell>
        <mxCell id="6KkaSoD32rxEe_C6K4QG-61" value="" style="endArrow=block;endSize=16;endFill=0;html=1;rounded=0;entryX=0.327;entryY=0.982;entryDx=0;entryDy=0;entryPerimeter=0;" edge="1" parent="1" target="6KkaSoD32rxEe_C6K4QG-39">
          <mxGeometry width="160" relative="1" as="geometry">
            <mxPoint x="1840" y="-1570" as="sourcePoint" />
            <mxPoint x="1720" y="-1530" as="targetPoint" />
          </mxGeometry>
        </mxCell>
        <mxCell id="6KkaSoD32rxEe_C6K4QG-63" value="" style="endArrow=block;endSize=16;endFill=0;html=1;rounded=0;entryX=0.327;entryY=0.982;entryDx=0;entryDy=0;entryPerimeter=0;" edge="1" parent="1">
          <mxGeometry width="160" relative="1" as="geometry">
            <mxPoint x="1496" y="-1569" as="sourcePoint" />
            <mxPoint x="1494" y="-1600" as="targetPoint" />
          </mxGeometry>
        </mxCell>
        <mxCell id="6KkaSoD32rxEe_C6K4QG-64" value="" style="endArrow=block;endSize=16;endFill=0;html=1;rounded=0;entryX=0.327;entryY=0.982;entryDx=0;entryDy=0;entryPerimeter=0;" edge="1" parent="1">
          <mxGeometry width="160" relative="1" as="geometry">
            <mxPoint x="1082" y="-1569" as="sourcePoint" />
            <mxPoint x="1080" y="-1600" as="targetPoint" />
          </mxGeometry>
        </mxCell>
        <mxCell id="6KkaSoD32rxEe_C6K4QG-65" value="" style="endArrow=block;endSize=16;endFill=0;html=1;rounded=0;entryX=0.327;entryY=0.982;entryDx=0;entryDy=0;entryPerimeter=0;" edge="1" parent="1">
          <mxGeometry width="160" relative="1" as="geometry">
            <mxPoint x="662" y="-1569" as="sourcePoint" />
            <mxPoint x="660" y="-1600" as="targetPoint" />
          </mxGeometry>
        </mxCell>
        <mxCell id="6KkaSoD32rxEe_C6K4QG-66" value="" style="endArrow=block;endSize=16;endFill=0;html=1;rounded=0;entryX=0.327;entryY=0.982;entryDx=0;entryDy=0;entryPerimeter=0;" edge="1" parent="1">
          <mxGeometry width="160" relative="1" as="geometry">
            <mxPoint x="242" y="-1569" as="sourcePoint" />
            <mxPoint x="240" y="-1600" as="targetPoint" />
          </mxGeometry>
        </mxCell>
        <mxCell id="6KkaSoD32rxEe_C6K4QG-67" value="" style="endArrow=block;endSize=16;endFill=0;html=1;rounded=0;entryX=0.327;entryY=0.982;entryDx=0;entryDy=0;entryPerimeter=0;" edge="1" parent="1">
          <mxGeometry width="160" relative="1" as="geometry">
            <mxPoint x="-308" y="-1569" as="sourcePoint" />
            <mxPoint x="-310" y="-1600" as="targetPoint" />
          </mxGeometry>
        </mxCell>
        <mxCell id="ieHR7ZOc31qo_cYA6DRX-9" value="&lt;div&gt;&amp;lt;&amp;lt;enum&amp;gt;&amp;gt;&lt;/div&gt;&lt;div&gt;LogicalOperator&lt;/div&gt;" style="swimlane;fontStyle=0;childLayout=stackLayout;horizontal=1;startSize=36;fillColor=none;horizontalStack=0;resizeParent=1;resizeParentMax=0;resizeLast=0;collapsible=1;marginBottom=0;whiteSpace=wrap;html=1;" parent="1" vertex="1">
          <mxGeometry x="1166" y="-1520" width="150" height="90" as="geometry" />
        </mxCell>
        <mxCell id="ieHR7ZOc31qo_cYA6DRX-11" value="&lt;div&gt;And&lt;/div&gt;&lt;div&gt;Or&lt;/div&gt;" style="text;strokeColor=none;fillColor=none;align=left;verticalAlign=top;spacingLeft=4;spacingRight=4;overflow=hidden;rotatable=0;points=[[0,0.5],[1,0.5]];portConstraint=eastwest;whiteSpace=wrap;html=1;" parent="ieHR7ZOc31qo_cYA6DRX-9" vertex="1">
          <mxGeometry y="36" width="150" height="54" as="geometry" />
        </mxCell>
      </root>
    </mxGraphModel>
  </diagram>
  <diagram id="uolMN5pokwYFmUVFDvLw" name="PÃ¡gina-2">
    <mxGraphModel dx="2593" dy="1911" grid="0" gridSize="10" guides="1" tooltips="1" connect="1" arrows="1" fold="1" page="0" pageScale="1" pageWidth="827" pageHeight="1169" math="0" shadow="0">
      <root>
        <mxCell id="0" />
        <mxCell id="1" parent="0" />
        <mxCell id="QrTxHWervZNT9efonzPw-1" value="" style="group" vertex="1" connectable="0" parent="1">
          <mxGeometry x="134" y="-302" width="1421" height="808" as="geometry" />
        </mxCell>
        <mxCell id="QrTxHWervZNT9efonzPw-2" value="User" style="swimlane;fontStyle=1;align=center;verticalAlign=top;childLayout=stackLayout;horizontal=1;startSize=40;horizontalStack=0;resizeParent=1;resizeParentMax=0;resizeLast=0;collapsible=1;marginBottom=0;whiteSpace=wrap;html=1;" vertex="1" parent="QrTxHWervZNT9efonzPw-1">
          <mxGeometry x="130" width="422" height="539" as="geometry" />
        </mxCell>
        <mxCell id="QrTxHWervZNT9efonzPw-3" value="&lt;div&gt;# name: String&lt;/div&gt;&lt;div&gt;# state: IUserState&lt;/div&gt;&lt;div&gt;# system: App&lt;/div&gt;" style="text;strokeColor=none;fillColor=none;align=left;verticalAlign=top;spacingLeft=4;spacingRight=4;overflow=hidden;rotatable=0;points=[[0,0.5],[1,0.5]];portConstraint=eastwest;whiteSpace=wrap;html=1;" vertex="1" parent="QrTxHWervZNT9efonzPw-2">
          <mxGeometry y="40" width="422" height="60" as="geometry" />
        </mxCell>
        <mxCell id="QrTxHWervZNT9efonzPw-4" value="" style="line;strokeWidth=1;fillColor=none;align=left;verticalAlign=middle;spacingTop=-1;spacingLeft=3;spacingRight=3;rotatable=0;labelPosition=right;points=[];portConstraint=eastwest;strokeColor=inherit;" vertex="1" parent="QrTxHWervZNT9efonzPw-2">
          <mxGeometry y="100" width="422" height="8" as="geometry" />
        </mxCell>
        <mxCell id="QrTxHWervZNT9efonzPw-5" value="&lt;div&gt;&lt;u&gt;+ new(String, App):void&lt;/u&gt;&lt;/div&gt;&lt;div&gt;&lt;u&gt;&lt;br&gt;&lt;/u&gt;&lt;/div&gt;&lt;div&gt;+ uploadSample(specie:Evinchuca, location:Position):void&lt;/div&gt;&lt;div&gt;+ addReview(sample:Sample, opinion:OpinionValue):void&lt;/div&gt;&lt;div&gt;&lt;br&gt;&lt;/div&gt;&lt;div&gt;&lt;div&gt;+ stateCheck():void&lt;/div&gt;&lt;div&gt;&lt;br&gt;&lt;/div&gt;&lt;div&gt;+ setState(state:IUserState):void&lt;/div&gt;&lt;br&gt;&lt;div&gt;# cantidadFechasEntreDias(dates:LocalDate[0..*], days:int):double&lt;/div&gt;&lt;div&gt;# estaFechaEntreDias(date:LocalDate, days:int):boolean&lt;/div&gt;&lt;div&gt;&lt;br&gt;&lt;/div&gt;&lt;/div&gt;&lt;div&gt;//Getters&lt;/div&gt;&lt;div&gt;+ getApp():App&lt;/div&gt;&lt;div&gt;+ getName():String&lt;/div&gt;&lt;div&gt;+ getState():IUserState&lt;/div&gt;" style="text;strokeColor=none;fillColor=none;align=left;verticalAlign=top;spacingLeft=4;spacingRight=4;overflow=hidden;rotatable=0;points=[[0,0.5],[1,0.5]];portConstraint=eastwest;whiteSpace=wrap;html=1;" vertex="1" parent="QrTxHWervZNT9efonzPw-2">
          <mxGeometry y="108" width="422" height="431" as="geometry" />
        </mxCell>
        <mxCell id="QrTxHWervZNT9efonzPw-10" value="&lt;div&gt;&amp;lt;&amp;lt;interface&amp;gt;&amp;gt;&lt;/div&gt;&lt;div&gt;IUserState&lt;/div&gt;" style="swimlane;fontStyle=0;childLayout=stackLayout;horizontal=1;startSize=26;fillColor=none;horizontalStack=0;resizeParent=1;resizeParentMax=0;resizeLast=0;collapsible=1;marginBottom=0;whiteSpace=wrap;html=1;" vertex="1" parent="QrTxHWervZNT9efonzPw-1">
          <mxGeometry x="780" y="230" width="490" height="70" as="geometry" />
        </mxCell>
        <mxCell id="QrTxHWervZNT9efonzPw-11" value="&lt;div&gt;&lt;i&gt;+ getExpertise():String&lt;/i&gt;&lt;/div&gt;&lt;div&gt;&lt;i&gt;+ statCheck(user:ChangeableUser, samples:LocalDate[0..*], reviews:LocalDate[0..*]):void&lt;/i&gt;&lt;/div&gt;" style="text;strokeColor=none;fillColor=none;align=left;verticalAlign=top;spacingLeft=4;spacingRight=4;overflow=hidden;rotatable=0;points=[[0,0.5],[1,0.5]];portConstraint=eastwest;whiteSpace=wrap;html=1;" vertex="1" parent="QrTxHWervZNT9efonzPw-10">
          <mxGeometry y="26" width="490" height="44" as="geometry" />
        </mxCell>
        <mxCell id="QrTxHWervZNT9efonzPw-12" value="" style="html=1;verticalAlign=bottom;endArrow=block;curved=0;rounded=0;" edge="1" parent="QrTxHWervZNT9efonzPw-1" source="QrTxHWervZNT9efonzPw-5" target="QrTxHWervZNT9efonzPw-10">
          <mxGeometry width="80" relative="1" as="geometry">
            <mxPoint x="1210" y="760" as="sourcePoint" />
            <mxPoint x="1290" y="760" as="targetPoint" />
          </mxGeometry>
        </mxCell>
        <mxCell id="QrTxHWervZNT9efonzPw-13" value="state" style="edgeLabel;html=1;align=center;verticalAlign=middle;resizable=0;points=[];" vertex="1" connectable="0" parent="QrTxHWervZNT9efonzPw-12">
          <mxGeometry x="-0.1018" y="1" relative="1" as="geometry">
            <mxPoint as="offset" />
          </mxGeometry>
        </mxCell>
        <mxCell id="QrTxHWervZNT9efonzPw-14" value="Basic" style="swimlane;fontStyle=1;align=center;verticalAlign=top;childLayout=stackLayout;horizontal=1;startSize=26;horizontalStack=0;resizeParent=1;resizeParentMax=0;resizeLast=0;collapsible=1;marginBottom=0;whiteSpace=wrap;html=1;" vertex="1" parent="QrTxHWervZNT9efonzPw-1">
          <mxGeometry x="600" y="348" width="500" height="90" as="geometry" />
        </mxCell>
        <mxCell id="QrTxHWervZNT9efonzPw-15" value="" style="line;strokeWidth=1;fillColor=none;align=left;verticalAlign=middle;spacingTop=-1;spacingLeft=3;spacingRight=3;rotatable=0;labelPosition=right;points=[];portConstraint=eastwest;strokeColor=inherit;" vertex="1" parent="QrTxHWervZNT9efonzPw-14">
          <mxGeometry y="26" width="500" height="8" as="geometry" />
        </mxCell>
        <mxCell id="QrTxHWervZNT9efonzPw-16" value="&lt;div&gt;&lt;i&gt;+ getExpertise():String&lt;/i&gt;&lt;/div&gt;&lt;div&gt;&lt;i&gt;+ statCheck(user:ChangeableUser, samples:LocalDate[0..*], reviews:LocalDate[0..*]):void&lt;/i&gt;&lt;/div&gt;" style="text;strokeColor=none;fillColor=none;align=left;verticalAlign=top;spacingLeft=4;spacingRight=4;overflow=hidden;rotatable=0;points=[[0,0.5],[1,0.5]];portConstraint=eastwest;whiteSpace=wrap;html=1;" vertex="1" parent="QrTxHWervZNT9efonzPw-14">
          <mxGeometry y="34" width="500" height="56" as="geometry" />
        </mxCell>
        <mxCell id="QrTxHWervZNT9efonzPw-17" value="Expert" style="swimlane;fontStyle=1;align=center;verticalAlign=top;childLayout=stackLayout;horizontal=1;startSize=26;horizontalStack=0;resizeParent=1;resizeParentMax=0;resizeLast=0;collapsible=1;marginBottom=0;whiteSpace=wrap;html=1;" vertex="1" parent="QrTxHWervZNT9efonzPw-1">
          <mxGeometry x="944" y="478" width="500" height="90" as="geometry" />
        </mxCell>
        <mxCell id="QrTxHWervZNT9efonzPw-18" value="" style="line;strokeWidth=1;fillColor=none;align=left;verticalAlign=middle;spacingTop=-1;spacingLeft=3;spacingRight=3;rotatable=0;labelPosition=right;points=[];portConstraint=eastwest;strokeColor=inherit;" vertex="1" parent="QrTxHWervZNT9efonzPw-17">
          <mxGeometry y="26" width="500" height="8" as="geometry" />
        </mxCell>
        <mxCell id="QrTxHWervZNT9efonzPw-19" value="&lt;div&gt;&lt;i&gt;+ getExpertise():String&lt;/i&gt;&lt;/div&gt;&lt;div&gt;&lt;i&gt;+ statCheck(user:ChangeableUser, samples:LocalDate[0..*], reviews:LocalDate[0..*]):void&lt;/i&gt;&lt;/div&gt;" style="text;strokeColor=none;fillColor=none;align=left;verticalAlign=top;spacingLeft=4;spacingRight=4;overflow=hidden;rotatable=0;points=[[0,0.5],[1,0.5]];portConstraint=eastwest;whiteSpace=wrap;html=1;" vertex="1" parent="QrTxHWervZNT9efonzPw-17">
          <mxGeometry y="34" width="500" height="56" as="geometry" />
        </mxCell>
        <mxCell id="QrTxHWervZNT9efonzPw-20" value="" style="endArrow=block;dashed=1;endFill=0;endSize=12;html=1;rounded=0;entryX=0.665;entryY=1.083;entryDx=0;entryDy=0;entryPerimeter=0;exitX=0.8;exitY=0;exitDx=0;exitDy=0;exitPerimeter=0;" edge="1" parent="QrTxHWervZNT9efonzPw-1" source="QrTxHWervZNT9efonzPw-17" target="QrTxHWervZNT9efonzPw-11">
          <mxGeometry width="160" relative="1" as="geometry">
            <mxPoint x="1230" y="440" as="sourcePoint" />
            <mxPoint x="1390" y="440" as="targetPoint" />
          </mxGeometry>
        </mxCell>
        <mxCell id="QrTxHWervZNT9efonzPw-21" value="" style="endArrow=block;dashed=1;endFill=0;endSize=12;html=1;rounded=0;entryX=0.469;entryY=0.987;entryDx=0;entryDy=0;entryPerimeter=0;exitX=0.641;exitY=0;exitDx=0;exitDy=0;exitPerimeter=0;" edge="1" parent="QrTxHWervZNT9efonzPw-1" source="QrTxHWervZNT9efonzPw-14" target="QrTxHWervZNT9efonzPw-11">
          <mxGeometry width="160" relative="1" as="geometry">
            <mxPoint x="860.7438525366574" y="360" as="sourcePoint" />
            <mxPoint x="1010" y="324" as="targetPoint" />
          </mxGeometry>
        </mxCell>
        <mxCell id="QrTxHWervZNT9efonzPw-27" value="PermanetE" style="swimlane;fontStyle=1;align=center;verticalAlign=top;childLayout=stackLayout;horizontal=1;startSize=26;horizontalStack=0;resizeParent=1;resizeParentMax=0;resizeLast=0;collapsible=1;marginBottom=0;whiteSpace=wrap;html=1;" vertex="1" parent="QrTxHWervZNT9efonzPw-1">
          <mxGeometry x="229" y="703" width="500" height="90" as="geometry" />
        </mxCell>
        <mxCell id="QrTxHWervZNT9efonzPw-28" value="" style="line;strokeWidth=1;fillColor=none;align=left;verticalAlign=middle;spacingTop=-1;spacingLeft=3;spacingRight=3;rotatable=0;labelPosition=right;points=[];portConstraint=eastwest;strokeColor=inherit;" vertex="1" parent="QrTxHWervZNT9efonzPw-27">
          <mxGeometry y="26" width="500" height="8" as="geometry" />
        </mxCell>
        <mxCell id="QrTxHWervZNT9efonzPw-29" value="&lt;div&gt;&lt;u&gt;+ new(String, App):void&lt;/u&gt;&lt;/div&gt;&lt;div&gt;&lt;br&gt;&lt;/div&gt;" style="text;strokeColor=none;fillColor=none;align=left;verticalAlign=top;spacingLeft=4;spacingRight=4;overflow=hidden;rotatable=0;points=[[0,0.5],[1,0.5]];portConstraint=eastwest;whiteSpace=wrap;html=1;" vertex="1" parent="QrTxHWervZNT9efonzPw-27">
          <mxGeometry y="34" width="500" height="56" as="geometry" />
        </mxCell>
        <mxCell id="QrTxHWervZNT9efonzPw-32" value="Extends" style="endArrow=block;endSize=16;endFill=0;html=1;rounded=0;entryX=0.687;entryY=1.008;entryDx=0;entryDy=0;entryPerimeter=0;exitX=0.158;exitY=-0.033;exitDx=0;exitDy=0;exitPerimeter=0;" edge="1" parent="QrTxHWervZNT9efonzPw-1" source="QrTxHWervZNT9efonzPw-27" target="QrTxHWervZNT9efonzPw-5">
          <mxGeometry width="160" relative="1" as="geometry">
            <mxPoint x="938" y="678" as="sourcePoint" />
            <mxPoint x="890" y="530" as="targetPoint" />
          </mxGeometry>
        </mxCell>
        <mxCell id="QrTxHWervZNT9efonzPw-36" value="PermanetExpert" style="swimlane;fontStyle=1;align=center;verticalAlign=top;childLayout=stackLayout;horizontal=1;startSize=26;horizontalStack=0;resizeParent=1;resizeParentMax=0;resizeLast=0;collapsible=1;marginBottom=0;whiteSpace=wrap;html=1;" vertex="1" parent="QrTxHWervZNT9efonzPw-1">
          <mxGeometry x="921" y="718" width="500" height="90" as="geometry" />
        </mxCell>
        <mxCell id="QrTxHWervZNT9efonzPw-37" value="" style="line;strokeWidth=1;fillColor=none;align=left;verticalAlign=middle;spacingTop=-1;spacingLeft=3;spacingRight=3;rotatable=0;labelPosition=right;points=[];portConstraint=eastwest;strokeColor=inherit;" vertex="1" parent="QrTxHWervZNT9efonzPw-36">
          <mxGeometry y="26" width="500" height="8" as="geometry" />
        </mxCell>
        <mxCell id="QrTxHWervZNT9efonzPw-38" value="&lt;div&gt;&lt;i&gt;+ statCheck(user:ChangeableUser, samples:LocalDate[0..*], reviews:LocalDate[0..*]):void&lt;/i&gt;&lt;/div&gt;" style="text;strokeColor=none;fillColor=none;align=left;verticalAlign=top;spacingLeft=4;spacingRight=4;overflow=hidden;rotatable=0;points=[[0,0.5],[1,0.5]];portConstraint=eastwest;whiteSpace=wrap;html=1;" vertex="1" parent="QrTxHWervZNT9efonzPw-36">
          <mxGeometry y="34" width="500" height="56" as="geometry" />
        </mxCell>
        <mxCell id="QrTxHWervZNT9efonzPw-39" value="Extends" style="endArrow=block;endSize=16;endFill=0;html=1;rounded=0;entryX=0.187;entryY=1.013;entryDx=0;entryDy=0;entryPerimeter=0;exitX=0.158;exitY=-0.033;exitDx=0;exitDy=0;exitPerimeter=0;" edge="1" parent="QrTxHWervZNT9efonzPw-1" source="QrTxHWervZNT9efonzPw-36" target="QrTxHWervZNT9efonzPw-19">
          <mxGeometry width="160" relative="1" as="geometry">
            <mxPoint x="1630" y="693" as="sourcePoint" />
            <mxPoint x="1112" y="557" as="targetPoint" />
          </mxGeometry>
        </mxCell>
      </root>
    </mxGraphModel>
  </diagram>
</mxfile>
